<?xml version="1.0" encoding="utf-8"?>
<!-- Generator: Adobe Illustrator 16.0.0, SVG Export Plug-In . SVG Version: 6.00 Build 0)  -->
<!DOCTYPE svg PUBLIC "-//W3C//DTD SVG 1.1//EN" "http://www.w3.org/Graphics/SVG/1.1/DTD/svg11.dtd">
<svg version="1.1" id="Layer_1" xmlns="http://www.w3.org/2000/svg" xmlns:xlink="http://www.w3.org/1999/xlink" x="0px" y="0px"
	 width="603.961px" height="420.059px" viewBox="0 0 603.961 420.059" enable-background="new 0 0 603.961 420.059"
	 xml:space="preserve">
<path fill-rule="evenodd" clip-rule="evenodd" fill="#FFFFFF" d="M25.12,210.019C-29.676,178.852,12.047,78.347,84.195,81.361
	c-9.298-41.973,79.503-107.626,152.001-44.455c9.137-47.462,148.995-57.023,168.38,18.717
	C425.627,1.81,586.339,30.78,547.23,128.152c63.145-14.037,91.724,151.434-11.982,156.693
	c27.65,58.485-74.428,113.123-115.277,76.88c5.482,50.582-144.079,94.267-172.974,14.087
	c-11.326,50.581-160.467,16.842-138.061-51.729C64.899,350.296-26.81,267.915,25.12,210.019z"/>
</svg>
