<?xml version="1.0" encoding="utf-8"?>
<!-- Generator: Adobe Illustrator 16.0.0, SVG Export Plug-In . SVG Version: 6.00 Build 0)  -->
<!DOCTYPE svg PUBLIC "-//W3C//DTD SVG 1.1//EN" "http://www.w3.org/Graphics/SVG/1.1/DTD/svg11.dtd">
<svg version="1.1" id="Layer_1" xmlns="http://www.w3.org/2000/svg" xmlns:xlink="http://www.w3.org/1999/xlink" x="0px" y="0px"
	 width="114px" height="50px" viewBox="0 0 114 50" enable-background="new 0 0 114 50" xml:space="preserve">
<g>
	<path fill="#41969C" d="M13.054,19.292c-0.91,0-1.74,0.911-1.74,2.286c0,1.355,0.83,2.266,1.74,2.266s1.679-0.911,1.679-2.266
		C14.733,20.202,13.964,19.292,13.054,19.292z"/>
	<path fill="#41969C" d="M13.306,11.643C6.04,11.643,0.15,17.533,0.15,24.8c0,7.266,5.89,13.155,13.156,13.155
		s13.157-5.89,13.157-13.155C26.463,17.533,20.572,11.643,13.306,11.643z M17.302,21.57c0,2.407-1.901,4.059-4.37,4.059
		c-0.829,0-1.254-0.215-1.254-0.215c-0.263,0.264-0.424,0.539-0.424,0.783c0,1.517,6.837-0.893,6.837,3.254
		c0,2.388-2.67,3.517-5.199,3.517c-3.702,0-4.43-2.165-4.43-2.165l1.457-1.334c0,0,0.647,1.698,3.196,1.698
		c1.173,0,2.609-0.305,2.609-1.296c0-1.961-6.574,0.425-6.574-2.872c0-0.81,0.627-1.598,1.255-2.226
		c-0.89-0.586-1.66-1.82-1.66-3.095c0-2.367,1.841-4.147,4.41-4.147c0.829,0,1.801,0.237,1.982,0.399l0.364-0.431h2.953l-0.424,2
		h-1.417C17.1,19.5,17.302,20.781,17.302,21.57z"/>
</g>
<g>
	<path fill="#FFFFFF" d="M39.992,22.139c-0.776-0.965-1.803-1.3-2.58-1.3c-1.804,0-2.6,1.72-2.6,3.607
		c0,1.763,0.796,3.439,2.516,3.439c1.825,0,3.44-1.677,3.44-1.677l0.377,2.181c0,0-1.573,1.635-4.32,1.635
		c-3.125,0-4.677-2.684-4.677-5.39c0-3.062,1.825-5.789,5.202-5.789c2.58,0,3.838,1.405,3.838,1.405L39.992,22.139z"/>
	<path fill="#FFFFFF" d="M44.376,20.44c0,0,1.552-1.594,4.384-1.594c1.741,0,3.586,0.714,3.586,2.895v5.433
		c0,1.259,1.07,2.517,1.07,2.517l-2.643,0.293c0,0-0.524-0.587-0.712-1.301c-0.818,0.818-2.014,1.342-3.167,1.342
		c-1.825,0-3.062-1.342-3.062-2.746c0-2.203,2.181-3.943,5.915-4.069v-0.398c0-1.468-0.545-2.098-1.426-2.098
		c-1.657,0-2.873,1.573-2.873,1.573L44.376,20.44z M49.745,27.194v-2.14c-1.027,0.084-3.23,0.314-3.23,1.887
		c0,0.589,0.399,1.154,1.238,1.154C48.403,28.096,49.283,27.655,49.745,27.194z"/>
	<path fill="#FFFFFF" d="M63.651,21.93c0,0-0.608-0.567-1.405-0.567c-1.092,0-2.392,1.343-2.392,2.978v3.608l0.231,1.804h-2.833
		v-8.432l-0.293-2.118l2.895-0.314v1.908c0,0,1.028-1.951,2.852-1.951c0.65,0,1.237,0.252,1.742,0.776L63.651,21.93z"/>
	<path fill="#FFFFFF" d="M75.982,27.151c0,1.259,1.07,2.518,1.07,2.518l-2.644,0.294c0,0-0.46-0.44-0.712-1.237
		c-0.649,0.712-1.93,1.279-2.873,1.279c-2.245,0-4.195-1.867-4.195-5.348c0-3.126,2.266-5.811,5.537-5.811
		c0.356,0,1.216,0.105,1.216,0.105v-2.852l-0.293-2.119l2.894-0.314V27.151z M73.382,27.068v-6.229c0,0-0.733-0.126-1.552-0.126
		c-1.321,0-2.412,1.658-2.412,3.755c0,2.286,0.944,3.586,2.076,3.586C72.04,28.054,72.732,27.635,73.382,27.068z"/>
	<path fill="#FFFFFF" d="M84.729,30.024c-3.188,0-4.845-2.789-4.845-5.431c0-3.125,1.993-5.748,5.559-5.748
		c2.747,0,4.823,1.657,4.823,5.371C90.266,27.341,88.232,30.024,84.729,30.024z M85.064,28.159c1.51,0,2.412-1.636,2.412-3.732
		c0-2.099-0.902-3.714-2.412-3.714s-2.413,1.615-2.413,3.714C82.651,26.523,83.555,28.159,85.064,28.159z"/>
	<path fill="#FFFFFF" d="M93.412,26.586c0,0,1.699,1.468,3.336,1.468c0.754,0,1.529-0.335,1.529-1.049
		c0-1.636-5.098-1.677-5.098-4.761c0-2.579,2.036-3.377,4.175-3.377c1.846,0,2.999,0.693,2.999,0.693l-0.481,2.097
		c0,0-1.049-0.944-2.958-0.944c-0.713,0-1.342,0.42-1.342,0.986c0,1.699,5.118,1.51,5.118,5.035c0,2.14-1.573,3.291-3.965,3.291
		c-2.391,0-3.565-1.237-3.565-1.237L93.412,26.586z"/>
	<path fill="#FFFFFF" d="M108.429,30.024c-3.188,0-4.845-2.789-4.845-5.431c0-3.125,1.993-5.748,5.559-5.748
		c2.746,0,4.823,1.657,4.823,5.371C113.966,27.341,111.933,30.024,108.429,30.024z M108.765,28.159c1.51,0,2.411-1.636,2.411-3.732
		c0-2.099-0.901-3.714-2.411-3.714c-1.511,0-2.413,1.615-2.413,3.714C106.352,26.523,107.254,28.159,108.765,28.159z"/>
</g>
</svg>
