<?xml version="1.0" encoding="utf-8"?>
<!-- Generator: Adobe Illustrator 16.0.0, SVG Export Plug-In . SVG Version: 6.00 Build 0)  -->
<!DOCTYPE svg PUBLIC "-//W3C//DTD SVG 1.1//EN" "http://www.w3.org/Graphics/SVG/1.1/DTD/svg11.dtd">
<svg version="1.1" id="Layer_1" xmlns="http://www.w3.org/2000/svg" xmlns:xlink="http://www.w3.org/1999/xlink" x="0px" y="0px"
	 width="222px" height="57px" viewBox="0 0 222 57" enable-background="new 0 0 222 57" xml:space="preserve">
<g>
	<path fill="#41969C" d="M30.284,16.577c-1.966,0-3.757,1.965-3.757,4.936c0,2.927,1.792,4.893,3.757,4.893
		c1.966,0,3.626-1.966,3.626-4.893C33.91,18.542,32.25,16.577,30.284,16.577z"/>
	<path fill="#41969C" d="M30.83,0.057c-15.692,0-28.414,12.721-28.414,28.413c0,15.693,12.721,28.414,28.414,28.414
		c15.691,0,28.413-12.721,28.413-28.414C59.243,12.778,46.521,0.057,30.83,0.057z M39.458,21.984c0,5.198-4.106,8.523-9.437,8.523
		c-1.791,0-2.708-0.587-2.708-0.587c-0.568,0.568-0.917,1.104-0.917,1.628c0,3.276,14.766-1.96,14.766,6.996
		c0,5.154-5.767,7.584-11.228,7.584c-7.995,0-9.567-4.686-9.567-4.686l3.146-2.888c0,0,1.397,3.668,6.903,3.668
		c2.534,0,5.636-0.658,5.636-2.799c0-4.237-14.199,0.918-14.199-6.204c0-1.746,1.354-3.451,2.708-4.805
		c-1.922-1.267-3.583-3.932-3.583-6.684c0-5.112,3.976-8.956,9.524-8.956c1.792,0,3.889,1.158,4.282,1.508L35.57,14h6.378l-0.917,4
		h-3.058C39.021,19,39.458,20.28,39.458,21.984z"/>
</g>
<g>
	<path fill="#FFFFFF" d="M85.021,18.873c-1.403-1.744-3.26-2.35-4.663-2.35c-3.259,0-4.7,3.108-4.7,6.52
		c0,3.185,1.441,6.217,4.549,6.217c3.298,0,6.217-3.033,6.217-3.033l0.682,3.942c0,0-2.843,2.957-7.809,2.957
		c-5.648,0-8.453-4.853-8.453-9.743c0-5.534,3.297-10.462,9.4-10.462c4.663,0,6.938,2.54,6.938,2.54L85.021,18.873z"/>
	<path fill="#FFFFFF" d="M92.944,15.802c0,0,2.805-2.881,7.922-2.881c3.146,0,6.482,1.289,6.482,5.231v9.818
		c0,2.275,1.934,4.549,1.934,4.549l-4.777,0.53c0,0-0.947-1.062-1.289-2.351c-1.478,1.479-3.639,2.427-5.724,2.427
		c-3.298,0-5.534-2.427-5.534-4.966c0-3.98,3.942-7.126,10.689-7.354v-0.721c0-2.653-0.985-3.791-2.577-3.791
		c-2.995,0-5.193,2.843-5.193,2.843L92.944,15.802z M102.648,28.008v-3.866c-1.857,0.151-5.837,0.568-5.837,3.411
		c0,1.062,0.72,2.085,2.236,2.085C100.222,29.639,101.814,28.842,102.648,28.008z"/>
	<path fill="#FFFFFF" d="M127.781,18.494c0,0-1.099-1.023-2.54-1.023c-1.971,0-4.321,2.426-4.321,5.382v6.521l0.417,3.26h-5.116
		V17.394l-0.531-3.828l5.23-0.569v3.45c0,0,1.857-3.526,5.156-3.526c1.175,0,2.236,0.455,3.146,1.402L127.781,18.494z"/>
	<path fill="#FFFFFF" d="M150.072,27.933c0,2.275,1.933,4.549,1.933,4.549l-4.776,0.53c0,0-0.833-0.796-1.289-2.236
		c-1.175,1.289-3.487,2.312-5.193,2.312c-4.056,0-7.581-3.373-7.581-9.666c0-5.647,4.095-10.5,10.007-10.5
		c0.646,0,2.199,0.189,2.199,0.189V7.956l-0.53-3.829l5.231-0.568V27.933z M145.371,27.781V16.522c0,0-1.326-0.228-2.805-0.228
		c-2.389,0-4.359,2.995-4.359,6.785c0,4.132,1.705,6.481,3.753,6.481C142.945,29.562,144.197,28.804,145.371,27.781z"/>
	<path fill="#FFFFFF" d="M165.88,33.126c-5.762,0-8.756-5.042-8.756-9.818c0-5.648,3.601-10.387,10.045-10.387
		c4.966,0,8.72,2.995,8.72,9.704C175.889,28.273,172.211,33.126,165.88,33.126z M166.487,29.751c2.729,0,4.358-2.956,4.358-6.746
		c0-3.791-1.63-6.71-4.358-6.71c-2.729,0-4.36,2.919-4.36,6.71C162.127,26.795,163.758,29.751,166.487,29.751z"/>
	<path fill="#FFFFFF" d="M181.574,26.909c0,0,3.071,2.653,6.027,2.653c1.365,0,2.768-0.606,2.768-1.895
		c0-2.957-9.213-3.032-9.213-8.605c0-4.663,3.678-6.103,7.545-6.103c3.335,0,5.421,1.251,5.421,1.251L193.25,18
		c0,0-1.896-1.706-5.345-1.706c-1.289,0-2.427,0.758-2.427,1.782c0,3.07,9.25,2.729,9.25,9.098c0,3.866-2.844,5.952-7.165,5.952
		s-6.443-2.237-6.443-2.237L181.574,26.909z"/>
	<path fill="#FFFFFF" d="M208.716,33.126c-5.762,0-8.756-5.042-8.756-9.818c0-5.648,3.601-10.387,10.045-10.387
		c4.967,0,8.719,2.995,8.719,9.704C218.724,28.273,215.047,33.126,208.716,33.126z M209.322,29.751c2.73,0,4.36-2.956,4.36-6.746
		c0-3.791-1.63-6.71-4.36-6.71c-2.729,0-4.358,2.919-4.358,6.71C204.964,26.795,206.594,29.751,209.322,29.751z"/>
</g>
<g>
	<path fill="#FFFFFF" d="M72.755,45.29c0,1.17-0.561,2.255-1.865,2.255c-0.152,0-0.323-0.019-0.513-0.058l0.047-0.837
		c0.162,0.076,0.314,0.123,0.466,0.123c0.619,0,1.009-0.686,1.009-1.483v-5.022l-0.124-0.875h0.979V45.29z"/>
	<path fill="#FFFFFF" d="M78.775,40.601l0.485-0.105l1.741,4.262l0.457,0.895h-0.952l-0.542-1.313h-2.074l-0.562,1.313h-0.761
		L78.775,40.601z M78.148,43.691h1.569l-0.666-1.646l-0.085-0.285l-0.104,0.285L78.148,43.691z"/>
	<path fill="#FFFFFF" d="M87.174,45.775l-0.523-0.097l-1.712-4.194v0.01l-0.533-0.894h1.076l1.351,3.376l0.162,0.561l0.209-0.599
		l1.427-3.338h0.799L87.174,45.775z"/>
	<path fill="#FFFFFF" d="M94.497,40.601l0.485-0.105l1.741,4.262l0.457,0.895h-0.951l-0.542-1.313h-2.074l-0.562,1.313h-0.761
		L94.497,40.601z M93.869,43.691h1.569l-0.666-1.646l-0.086-0.285l-0.104,0.285L93.869,43.691z"/>
	<path fill="#FFFFFF" d="M100.602,45.176c0,0.01,0.095-0.732,0.095-0.732s0.638,0.686,1.474,0.686c0.486,0,0.875-0.258,0.875-0.762
		c0-0.962-2.435-1.009-2.435-2.397c0-0.8,0.694-1.465,1.674-1.465c0.666,0,1.17,0.219,1.447,0.38l-0.258,0.666
		c-0.019-0.037-0.57-0.399-1.217-0.399c-0.39,0-0.799,0.2-0.799,0.619c0,1.055,2.416,0.922,2.416,2.492
		c0,0.913-0.675,1.513-1.722,1.513c-1.018,0-1.541-0.572-1.541-0.572L100.602,45.176z"/>
	<path fill="#FFFFFF" d="M111.778,41.723c-0.399-0.371-0.875-0.581-1.436-0.581c-1.094,0-1.846,0.99-1.846,2.027
		c0,1.207,0.961,1.931,1.902,1.931c0.79,0,1.674-0.619,1.674-0.619l0.209,0.619c0,0-0.856,0.676-2.017,0.676
		c-1.341,0-2.635-0.876-2.635-2.531c0-1.578,1.228-2.739,2.749-2.739c0.704,0,1.304,0.219,1.837,0.655L111.778,41.723z"/>
	<path fill="#FFFFFF" d="M119.576,45.651l-1.502-1.854l-0.714,0.009v1.228l0.095,0.618h-0.903v-4.31l-0.123-0.741h1.616
		c0.952,0,1.874,0.484,1.874,1.54c0,0.58-0.419,1.15-1.046,1.447l1.759,2.063H119.576z M117.894,43.169
		c0.627,0,1.169-0.467,1.169-1.028c0-0.6-0.542-0.903-1.169-0.903h-0.533v1.932H117.894z"/>
	<path fill="#FFFFFF" d="M125.474,45.033l0.094,0.618h-0.903v-4.31l-0.123-0.741h0.933V45.033z"/>
	<path fill="#FFFFFF" d="M131.95,40.601c0.951,0,1.874,0.484,1.874,1.54c0,0.886-0.923,1.665-2.159,1.665h-0.399v1.228l0.095,0.618
		h-0.904v-4.31l-0.123-0.741H131.95z M131.799,43.169c0.626,0,1.169-0.391,1.169-1.028c0-0.6-0.543-0.903-1.169-0.903h-0.533v1.932
		H131.799z"/>
	<path fill="#FFFFFF" d="M137.171,40.601h4.462v0.646h-1.855v3.786l0.095,0.618h-0.903v-4.404h-1.798V40.601z"/>
	<path fill="#FFFFFF" d="M155.918,42.483c0,1.779-1.133,3.168-2.902,3.168h-1.96v-5.384l-0.122-0.875h2.368
		C154.624,39.393,155.918,40.362,155.918,42.483z M151.914,40.076v4.89h1.216c1.085,0,1.864-1.102,1.864-2.426
		c0-1.34-0.779-2.464-1.864-2.464H151.914z"/>
	<path fill="#FFFFFF" d="M160.282,41.342l-0.124-0.741h2.978v0.637h-2.045v1.503h1.808l-0.2,0.638h-1.607v1.636h2.159l-0.2,0.638
		h-2.768V41.342z"/>
	<path fill="#FFFFFF" d="M169.385,45.775l-0.523-0.097l-1.712-4.194v0.01l-0.533-0.894h1.075l1.35,3.376l0.162,0.561l0.21-0.599
		l1.427-3.338h0.799L169.385,45.775z"/>
	<path fill="#FFFFFF" d="M175.585,41.342l-0.124-0.741h2.978v0.637h-2.046v1.503h1.809l-0.2,0.638h-1.608v1.636h2.161l-0.2,0.638
		h-2.769V41.342z"/>
	<path fill="#FFFFFF" d="M182.946,41.342l-0.125-0.741h0.933v4.396h2.217l-0.19,0.655h-2.834V41.342z"/>
	<path fill="#FFFFFF" d="M194.417,43.092c0,1.494-1.123,2.684-2.598,2.684c-1.578,0-2.482-1.161-2.482-2.588
		c0-1.494,1.113-2.683,2.589-2.683C193.591,40.505,194.417,41.608,194.417,43.092z M191.886,45.157c1,0,1.655-0.904,1.655-2.019
		c0-1.111-0.655-2.016-1.655-2.016c-0.998,0-1.664,0.904-1.664,2.016C190.222,44.253,190.888,45.157,191.886,45.157z"/>
	<path fill="#FFFFFF" d="M200.275,40.601c0.951,0,1.873,0.484,1.873,1.54c0,0.886-0.922,1.665-2.158,1.665h-0.4v1.228l0.096,0.618
		h-0.904v-4.31l-0.122-0.741H200.275z M200.123,43.169c0.627,0,1.17-0.391,1.17-1.028c0-0.6-0.543-0.903-1.17-0.903h-0.533v1.932
		H200.123z"/>
	<path fill="#FFFFFF" d="M206.514,41.342l-0.124-0.741h2.979v0.637h-2.047v1.503h1.809l-0.201,0.638h-1.607v1.636h2.16l-0.199,0.638
		h-2.769V41.342z"/>
	<path fill="#FFFFFF" d="M216.9,45.651l-1.504-1.854l-0.714,0.009v1.228l0.096,0.618h-0.903v-4.31l-0.123-0.741h1.617
		c0.95,0,1.872,0.484,1.872,1.54c0,0.58-0.417,1.15-1.045,1.447l1.76,2.063H216.9z M215.216,43.169c0.628,0,1.17-0.467,1.17-1.028
		c0-0.6-0.542-0.903-1.17-0.903h-0.533v1.932H215.216z"/>
</g>
</svg>
