<?xml version="1.0" standalone="no"?>
<!DOCTYPE svg PUBLIC "-//W3C//DTD SVG 1.1//EN" "http://www.w3.org/Graphics/SVG/1.1/DTD/svg11.dtd" >
<svg xmlns="http://www.w3.org/2000/svg">
<metadata></metadata>
<defs>
<font id="fontin_sans_rgbold_italic" horiz-adv-x="983" >
<font-face units-per-em="2048" ascent="1548" descent="-500" />
<missing-glyph horiz-adv-x="552" />
<glyph unicode="&#xfb01;" horiz-adv-x="1224" d="M-217 -305q122 0 202.5 83.5t102.5 227.5l125 840h-129l29 188h127l18 107q18 108 72.5 191.5t130.5 133t163 74.5t179 25q68 0 134.5 -16t112 -38.5t81.5 -45t53 -38.5l18 -16l-119 -207q-6 7 -17.5 17.5t-45.5 38.5t-66.5 49.5t-77 39t-81.5 17.5q-121 0 -193.5 -63 t-87.5 -154l-18 -115h413l254 27l-174 -887l-8 -174h-281l160 811v35h-391l-127 -848q-22 -147 -85.5 -257t-169.5 -173t-241 -64z" />
<glyph unicode="&#xfb02;" horiz-adv-x="1189" d="M-217 -305q122 0 202.5 83.5t102.5 227.5l125 840h-129l29 188h127l18 107q18 108 72.5 191.5t130.5 133t163 74.5t179 25q68 0 229 -45t205 -54l-252 -1292l-10 -174h-277l256 1319q-100 47 -159 47q-121 0 -193.5 -63t-87.5 -154l-18 -115h239l-92 -188h-174l-127 -848 q-22 -147 -85.5 -257t-169.5 -173t-241 -64z" />
<glyph unicode="&#xfb03;" horiz-adv-x="1871" d="M-217 -305q122 0 202.5 83.5t102.5 227.5l125 840h-129l29 188h127l18 107q18 108 72.5 191.5t130.5 133t163 74.5t179 25q167 0 317 -92q143 92 330 92q68 0 134.5 -16t112 -38.5t81.5 -45t54 -38.5l17 -16l-118 -207q-6 7 -17.5 17.5t-45.5 38.5t-67 49.5t-77.5 39 t-81.5 17.5q-121 0 -193.5 -63t-87.5 -154l-18 -115h413l254 27l-174 -887l-8 -174h-280l159 811v35h-391l-127 -848q-33 -224 -163 -358.5t-332 -135.5l-64 191q122 0 202.5 83.5t102.5 227.5l125 840h-391l-127 -848q-22 -147 -85.5 -257t-169.5 -173t-241 -64zM496 1034 h391l18 107q15 93 56 164q-89 61 -166 61q-121 0 -193.5 -63t-87.5 -154z" />
<glyph unicode="&#xfb04;" horiz-adv-x="1837" d="M-217 -305q122 0 202.5 83.5t102.5 227.5l125 840h-129l29 188h127l18 107q18 108 72.5 191.5t130.5 133t163 74.5t179 25q167 0 317 -92q143 92 330 92q68 0 229 -45t205 -54l-252 -1292l-10 -174h-276l256 1319q-101 47 -160 47q-121 0 -193.5 -63t-87.5 -154l-18 -115 h239l-92 -188h-174l-127 -848q-33 -224 -163 -358.5t-332 -135.5l-64 191q122 0 202.5 83.5t102.5 227.5l125 840h-391l-127 -848q-22 -147 -85.5 -257t-169.5 -173t-241 -64zM496 1034h391l18 107q15 93 56 164q-89 61 -166 61q-121 0 -193.5 -63t-87.5 -154z" />
<glyph horiz-adv-x="2048" />
<glyph horiz-adv-x="2048" />
<glyph unicode="&#xd;" horiz-adv-x="2048" />
<glyph unicode=" "  horiz-adv-x="552" />
<glyph unicode="&#x09;" horiz-adv-x="552" />
<glyph unicode="&#xa0;" horiz-adv-x="552" />
<glyph unicode="!" horiz-adv-x="550" d="M59 125q0 61 44.5 107.5t109.5 46.5t109.5 -46.5t44.5 -107.5q0 -64 -43.5 -108t-110.5 -44t-110.5 44t-43.5 108zM174 414l135 923l8 191l326 41l-287 -1178z" />
<glyph unicode="&#x22;" horiz-adv-x="768" d="M193 874l51 259v204l233 39l-86 -502h-198zM520 874l51 259v204l234 39l-86 -502h-199z" />
<glyph unicode="#" horiz-adv-x="1486" d="M2 356l37 193h297l98 319h-276l37 193h294l93 307h239l-94 -307h248l92 307h242l-95 -307h295l-59 -193h-289l-98 -319h293l-62 -193h-288l-107 -356h-242l109 356h-248l-106 -356h-242l109 356h-277zM575 549h248l99 319h-248z" />
<glyph unicode="$" horiz-adv-x="952" d="M2 86l33 211q17 -11 46 -28.5t106 -49.5t141 -39l86 395q-43 34 -65.5 52t-61.5 53t-60.5 63.5t-45 67t-34 81t-10.5 89.5q0 114 66.5 207.5t169.5 144.5t219 56l35 159h125l-37 -166q64 -7 124.5 -22.5t89.5 -27.5l29 -11l-92 -201l-26 12q-25 11 -74 27.5t-94 24.5 l-88 -404q113 -87 153 -127q121 -123 121 -270q0 -168 -130 -284.5t-320 -125.5l-35 -166h-125l37 175q-73 10 -143.5 36t-105.5 47zM414 1020q0 -80 65 -148l68 310q-59 -15 -96 -59t-37 -103zM457 193q59 19 97 61t38 106q0 58 -72 127z" />
<glyph unicode="%" horiz-adv-x="1761" d="M119 1038q0 135 100.5 234.5t233.5 99.5q136 0 238 -99t102 -235t-102 -234.5t-238 -98.5q-133 0 -233.5 99t-100.5 234zM156 0l1230 1409l195 -84l-1165 -1325h-260zM299 1040q0 -61 45.5 -112t110.5 -51q71 0 114 50t43 113q0 62 -48 108t-109 46q-63 0 -109.5 -45.5 t-46.5 -108.5zM969 307q0 135 100.5 234.5t233.5 99.5q136 0 237.5 -99t101.5 -235t-101.5 -235t-237.5 -99q-133 0 -233.5 99.5t-100.5 234.5zM1149 309q0 -61 45.5 -112.5t110.5 -51.5q71 0 114 50.5t43 113.5q0 62 -48 108t-109 46q-63 0 -109.5 -45.5t-46.5 -108.5z" />
<glyph unicode="&#x26;" horiz-adv-x="1441" d="M84 449q0 151 84.5 286.5t232.5 194.5q-37 41 -62.5 112t-25.5 132q0 110 73 201t199.5 143.5t276.5 52.5q52 0 109 -10.5t101 -25.5t80.5 -30.5t56.5 -26.5l20 -10l-70 -221q-6 5 -17.5 13t-46.5 29t-70.5 37t-84 29t-92.5 13q-102 0 -180 -68t-78 -163q0 -48 21 -108 t42 -96l21 -36l-4 -31q-138 -59 -223 -170.5t-85 -234.5q0 -72 23.5 -128.5t64 -89t88.5 -49t101 -16.5q99 0 190.5 54t151 152t59.5 214q0 25 -2 37q-94 -27 -196 -27q-44 0 -56 4l74 199q102 2 192.5 23.5t156 55t110 65.5t78.5 67l43 -215q-66 -59 -142 -90 q0 -167 -52 -307t-143 -235.5t-217 -148.5t-272 -53q-77 0 -150.5 17t-143 54.5t-121.5 91.5t-83.5 135t-31.5 178z" />
<glyph unicode="'" horiz-adv-x="440" d="M193 874l51 259v204l233 39l-86 -502h-198z" />
<glyph unicode="(" horiz-adv-x="651" d="M63 207q0 161 41 335t116 338t192 307t258 230l172 -76q-159 -111 -282.5 -301t-189 -411t-65.5 -436q0 -293 122 -533q40 -75 58 -92l-190 -76q-9 11 -25 32t-56 91.5t-70.5 147.5t-55.5 198t-25 246z" />
<glyph unicode=")" horiz-adv-x="630" d="M-223 -432q159 111 282.5 301t188.5 411.5t65 436.5q0 293 -122 532q-39 75 -58 92l191 76q9 -11 25 -32t55.5 -91.5t70 -147.5t55.5 -198t25 -246q0 -161 -41 -335t-115.5 -338t-191.5 -307t-258 -230z" />
<glyph unicode="*" horiz-adv-x="823" d="M10 1104l82 168l221 -6l-166 258l211 14l93 -178l124 229l138 -133l-125 -190l303 6l-82 -168l-221 6l166 -258l-211 -14l-92 176l-125 -226l-133 134l120 188z" />
<glyph unicode="+" horiz-adv-x="985" d="M88 418v200h293v316l225 -62v-254h309l-51 -200h-258v-295h-225v295h-293z" />
<glyph unicode="," horiz-adv-x="512" d="M-16 -195q68 47 109.5 111t41.5 111q0 40 -13.5 59.5t-45.5 34.5v14q0 49 39.5 94t97.5 45q61 0 103 -41t42 -116q0 -83 -79 -192.5t-238 -207.5z" />
<glyph unicode="-" horiz-adv-x="638" d="M33 399v213h596l-58 -213h-538z" />
<glyph unicode="." horiz-adv-x="485" d="M51 125q0 61 44.5 107.5t109.5 46.5t109 -46.5t44 -107.5q0 -64 -43 -108t-110 -44t-110.5 44t-43.5 108z" />
<glyph unicode="/" horiz-adv-x="729" d="M-45 -500l577 1846h232l-584 -1846h-225z" />
<glyph unicode="0" d="M51 367q0 169 37.5 323t106.5 275t176.5 192.5t238.5 71.5q96 0 168.5 -33.5t114.5 -91.5t62 -129.5t20 -155.5q0 -133 -19 -254t-62 -230t-106.5 -188.5t-158 -126.5t-211.5 -47q-72 0 -135.5 22t-116.5 67.5t-84 123.5t-31 181zM307 356q0 -98 34 -150t97 -52 q62 0 113 48t81.5 120.5t51.5 163.5t29 170.5t8 148.5q0 239 -121 239q-65 0 -117.5 -52t-84 -130t-53 -175t-30 -179.5t-8.5 -151.5z" />
<glyph unicode="1" horiz-adv-x="778" d="M12 0l35 197h195l129 729l-219 -66l-17 203l549 176l-188 -1042h245l-51 -197h-678z" />
<glyph unicode="2" d="M25 0v121q10 9 34 31q57 52 91 83.5t100 95.5t109 111t97.5 112t86.5 116.5t55 107t23 99.5q0 66 -39.5 106.5t-118.5 40.5q-29 0 -66 -7.5t-69.5 -18t-60.5 -21t-44.5 -18t-15.5 -7.5l-33 207q0 2 53 18.5t140.5 34t158.5 17.5q160 0 257.5 -88.5t97.5 -229.5 q0 -67 -27.5 -141t-71.5 -139t-97.5 -128.5t-107 -114t-97.5 -89t-72 -59.5l-27 -21l446 2l-55 -221h-747z" />
<glyph unicode="3" d="M-14 -16q14 -2 53 -2q59 0 123 8.5t137.5 32.5t130.5 60.5t95 98.5t38 140q0 160 -260 192l59 152q101 35 178.5 103.5t77.5 150.5q0 50 -41 78t-92 28q-33 0 -72.5 -8t-73 -19t-62 -22t-45.5 -18l-17 -7l-37 209q22 8 59 19t131.5 30t166.5 19q89 0 166.5 -31.5 t127.5 -96.5t50 -149q0 -92 -68.5 -181.5t-179.5 -131.5q79 -21 137.5 -98.5t58.5 -192.5q0 -104 -43.5 -195t-116 -155.5t-166.5 -111.5t-195.5 -70t-201.5 -23h-98z" />
<glyph unicode="4" d="M10 340l735 889l211 -37l-137 -776h197l-80 -221h-156l-37 -211l-8 -189h-278l69 400h-508zM305 416h264l58 319l43 158l-101 -152l-207 -264z" />
<glyph unicode="5" d="M12 -14h27q69 0 133.5 9.5t131.5 36t116 67t80.5 108.5t31.5 155q0 107 -62 168.5t-167 61.5l-133 -8l131 614h641l-88 -221h-360l-41 -207q161 -14 254.5 -123t93.5 -258q0 -176 -89 -313t-242.5 -210t-344.5 -73h-92z" />
<glyph unicode="6" d="M57 463q0 129 32.5 261t96 251t149 211.5t201 147.5t242.5 55q64 0 135 -14t111 -28l39 -14l-78 -205q-12 7 -33.5 17t-79 26.5t-104.5 16.5q-66 0 -125.5 -27.5t-106.5 -76t-83.5 -108.5t-65.5 -132q107 43 199 43q68 0 127.5 -23t107 -68t74.5 -118.5t27 -167.5 q0 -239 -140 -388t-370 -149q-91 0 -160.5 40.5t-111 110t-62.5 155.5t-21 184zM309 451q0 -283 144 -283q65 0 114.5 48t73 117.5t23.5 143.5q0 108 -43 162.5t-109 54.5q-81 0 -180 -41q-23 -122 -23 -202z" />
<glyph unicode="7" d="M4 -188l694 1165h-530l-41 221h881l43 -51l-834 -1380z" />
<glyph unicode="8" d="M29 289q0 44 9 84t21.5 71.5t38 64.5t47 56t60 53t65.5 49.5t74 51.5q-149 149 -149 309q0 87 34 157t90.5 114t127 67t147.5 23q160 0 250 -81t90 -190q0 -190 -254 -370q92 -88 141 -170t49 -179q0 -94 -39 -175t-103 -135t-146 -85t-168 -31q-166 0 -275.5 90 t-109.5 226zM274 330q0 -68 44 -114t114 -46q79 0 130.5 59t51.5 127q0 36 -15.5 74t-37 67t-43.5 53t-38 37l-15 13q-8 -5 -21 -14.5t-45.5 -39.5t-58 -60.5t-46 -73.5t-20.5 -82zM438 1075q0 -41 19 -81.5t34 -58.5t53 -57q3 -3 5 -5.5t4 -4.5q69 56 103 106t34 111 q0 58 -32.5 95t-90.5 37q-61 0 -95 -43.5t-34 -98.5z" />
<glyph unicode="9" d="M-27 -182l72 198q102 -45 219 -45q269 0 391 383q-107 -43 -204 -43q-68 0 -127.5 23t-107 68t-74.5 118.5t-27 167.5q0 239 140 388t370 149q90 0 160 -40.5t111.5 -110t62 -155.5t20.5 -184q0 -129 -27.5 -261t-87 -258.5t-143.5 -224.5t-206.5 -158t-266.5 -60 q-53 0 -122 10.5t-112 21.5t-41 13zM373 721q0 -108 42.5 -162.5t108.5 -54.5q82 0 181 41q22 116 22 203q0 60 -6 106t-20.5 88t-44 65t-72.5 23q-65 0 -114.5 -48t-73 -117.5t-23.5 -143.5z" />
<glyph unicode=":" horiz-adv-x="528" d="M68 111q0 60 42 101.5t101 41.5q56 0 96.5 -41.5t40.5 -101.5q0 -57 -40.5 -97.5t-96.5 -40.5q-59 0 -101 40.5t-42 97.5zM170 662q0 60 42 101.5t101 41.5q56 0 97 -42t41 -101q0 -57 -41 -97.5t-97 -40.5q-59 0 -101 40.5t-42 97.5z" />
<glyph unicode=";" horiz-adv-x="528" d="M-16 -195q68 47 109.5 111t41.5 111q0 40 -13.5 59.5t-45.5 34.5v14q0 49 39.5 94t97.5 45q61 0 103 -41t42 -116q0 -83 -79 -192.5t-238 -207.5zM172 662q0 60 42 101.5t101 41.5q56 0 97 -42t41 -101q0 -57 -41 -97.5t-97 -40.5q-59 0 -101 40.5t-42 97.5z" />
<glyph unicode="&#x3c;" horiz-adv-x="776" d="M59 506l551 500l92 -185l-313 -317l313 -314l-92 -184z" />
<glyph unicode="=" horiz-adv-x="1003" d="M88 219v193h815l-51 -193h-764zM88 598v193h836l-52 -193h-784z" />
<glyph unicode="&#x3e;" horiz-adv-x="776" d="M70 190l313 318l-313 313l92 185l551 -500l-551 -500z" />
<glyph unicode="?" horiz-adv-x="841" d="M111 125q0 61 44 107.5t109 46.5t109.5 -46.5t44.5 -107.5q0 -64 -43.5 -108t-110.5 -44t-110 44t-43 108zM174 485q0 60 51 136t123.5 148.5t145 144t123.5 145t51 129.5q0 70 -44.5 108.5t-115.5 38.5q-41 0 -96 -19.5t-90 -39.5l-35 -19l-31 234q17 7 46.5 18t110 29 t148.5 18q75 0 139 -18t118 -56.5t85 -106t31 -158.5q0 -70 -41.5 -147.5t-103.5 -143.5t-134.5 -138t-134.5 -132.5t-103.5 -125t-41.5 -116.5q0 -19 4 -35l-201 82q-4 10 -4 24z" />
<glyph unicode="@" horiz-adv-x="1847" d="M59 356q0 145 42 288.5t129 274t208.5 230.5t292 159.5t367.5 59.5q144 0 273.5 -55.5t220 -147t143.5 -213.5t53 -252q0 -159 -59 -301t-161.5 -247t-245 -171t-304.5 -77q-23 32 -40 82t-22 84l-6 34q-4 -5 -11.5 -13t-32 -29t-51 -37.5t-67 -29.5t-81.5 -13 q-131 0 -199 91.5t-68 231.5q0 136 56.5 268.5t152 234.5t230.5 165t282 63q42 0 92 -10t79 -20l30 -11l-51 -164q-111 -573 -111 -632q0 -22 3.5 -44t6.5 -33l4 -11q97 37 180.5 134t129 209t45.5 205q0 104 -36 199t-101.5 168.5t-165.5 117.5t-219 44 q-122 0 -240.5 -42.5t-214.5 -118.5t-170 -174t-115 -215t-41 -235q0 -87 22 -171t69 -162.5t113 -141.5t161 -107.5t207 -60.5l-144 -182q-152 37 -274 115t-200 182t-119.5 227t-41.5 254zM707 334q0 -146 94 -146q35 0 72.5 13.5t58.5 26.5l20 14l123 614 q-109 -16 -195 -98t-129.5 -194t-43.5 -230z" />
<glyph unicode="A" horiz-adv-x="1130" d="M-170 0l776 1352l203 41l197 -1137l65 -256h-291l-53 317h-461l-182 -317h-254zM383 528h313l-59 398l-2 80l-35 -80z" />
<glyph unicode="B" horiz-adv-x="1112" d="M72 0l225 1163l8 205l375 21q17 1 33 1q151 0 243 -83q102 -92 101 -226q0 -106 -66.5 -192t-152.5 -129q78 -43 129 -121t51 -166q0 -94 -39.5 -178.5t-112.5 -150.5t-186.5 -105t-251.5 -39h-356zM381 199h102q127 0 198 75.5t71 186.5q0 75 -57.5 124.5t-162.5 49.5 h-69zM500 827h80q60 0 129 -14q38 48 64 118t26 126q0 59 -40 95q-37 34 -100 34h-10l-80 -4z" />
<glyph unicode="C" horiz-adv-x="1263" d="M88 532q0 245 97 440t275.5 306t407.5 111q61 0 126.5 -14t116 -34.5t92.5 -41t65 -34.5l22 -14l-127 -184l-17 12q-17 12 -48.5 30.5t-69 36.5t-85.5 31t-91 13q-96 0 -186 -49.5t-157.5 -133.5t-108 -203t-40.5 -251q0 -75 20.5 -140.5t59.5 -117.5t102.5 -82.5 t143.5 -30.5q71 0 141.5 23.5t121 56.5t90.5 66t61 56l20 24l19 -248q-8 -8 -22.5 -20.5t-64 -44.5t-103.5 -57t-138 -45t-170 -20q-247 0 -400 156.5t-153 402.5z" />
<glyph unicode="D" horiz-adv-x="1374" d="M78 0l225 1159l8 209h545q208 0 339.5 -148.5t131.5 -388.5q0 -134 -34 -258.5t-100.5 -228t-158 -181t-213.5 -120.5t-260 -43h-483zM383 199h203q91 0 176.5 47.5t149.5 128.5t102.5 194.5t38.5 237.5q0 93 -30.5 173.5t-96.5 134.5t-156 54h-199z" />
<glyph unicode="E" horiz-adv-x="1034" d="M72 0l225 1159l8 209h739l-34 -203h-443l-73 -362h413l-76 -203h-376l-74 -397h496l-80 -203h-725z" />
<glyph unicode="F" horiz-adv-x="993" d="M72 0l225 1159l8 209h739l-36 -203h-443l-69 -362h413l-78 -203h-376l-82 -426l-8 -174h-293z" />
<glyph unicode="G" horiz-adv-x="1355" d="M88 532q0 245 97 440t275.5 306t407.5 111q61 0 126.5 -14t116 -34.5t92.5 -41t65 -34.5l22 -14l-127 -184l-17 12q-17 12 -48.5 30.5t-69 36.5t-85.5 31t-91 13q-96 0 -186 -49.5t-157.5 -133.5t-108 -203t-40.5 -251q0 -75 20.5 -140.5t59.5 -117.5t102.5 -82.5 t143.5 -30.5q100 0 186 39l54 275l-6 172h303l-117 -627q-33 0 -141 -23q-207 -45 -320 -45q-250 0 -403.5 156t-153.5 403z" />
<glyph unicode="H" horiz-adv-x="1503" d="M72 0l227 1159l8 209h299l-114 -567h604l73 358l9 209h299l-234 -1194l-8 -174h-293l115 578h-604l-80 -404l-8 -174h-293z" />
<glyph unicode="I" horiz-adv-x="632" d="M72 0l227 1163l8 205h299l-233 -1194l-8 -174h-293z" />
<glyph unicode="J" horiz-adv-x="679" d="M-311 -387l61 227q56 -22 117 -22q86 0 157 83t95 205l203 1053l10 209h299l-246 -1270q-18 -94 -61.5 -181.5t-108.5 -161.5t-160 -118.5t-205 -44.5q-36 0 -76 5t-62 11z" />
<glyph unicode="K" horiz-adv-x="1241" d="M80 0l223 1157l12 211h295l-121 -629l424 484l93 145h342l-611 -653l426 -715h-303l-385 668l-96 -492l-10 -176h-289z" />
<glyph unicode="L" horiz-adv-x="911" d="M78 0l225 1159l8 209h299l-225 -1161h526l-92 -207h-741z" />
<glyph unicode="M" horiz-adv-x="1792" d="M72 0l217 1159l-8 209h188l420 -840l682 840h192l-233 -1194l-8 -174h-289l164 836l-109 -170l-479 -541l-299 547l-53 174l-123 -672l-8 -174h-254z" />
<glyph unicode="N" horiz-adv-x="1511" d="M72 0l221 1157l-21 211h222l526 -799l76 -157l133 747l8 209h270l-229 -1194l-18 -174h-168l-533 770l-76 164l-141 -760l-8 -174h-262z" />
<glyph unicode="O" horiz-adv-x="1349" d="M68 510q0 142 31.5 273t94 241t149.5 191.5t205.5 127.5t254.5 46q114 0 206 -35t149 -89.5t95.5 -126.5t54 -141t15.5 -137q0 -193 -55.5 -358.5t-153.5 -281.5t-236 -181.5t-298 -65.5q-123 0 -221.5 42.5t-161 116.5t-96 170.5t-33.5 207.5zM340 535q0 -164 73 -263.5 t193 -99.5q93 0 177 59t142 152t92 209t34 229q0 166 -71.5 268.5t-197.5 102.5q-57 0 -117.5 -25.5t-118.5 -79.5t-104 -129.5t-74 -185.5t-28 -237z" />
<glyph unicode="P" horiz-adv-x="1081" d="M59 0l226 1159l8 209h422q106 0 196 -45t145.5 -129.5t55.5 -189.5q0 -232 -176 -376.5t-455 -144.5h-63l-58 -309l-8 -174h-293zM459 688h88q119 0 203 78t84 223q0 78 -52 129t-131 51h-96z" />
<glyph unicode="Q" horiz-adv-x="1390" d="M78 510q0 142 31.5 273t94 241t149.5 191.5t205.5 127.5t254.5 46q114 0 206 -35t149 -89.5t95.5 -126.5t54 -141t15.5 -137q0 -240 -83.5 -434t-234 -311t-345.5 -138q41 -14 141.5 -53.5t167.5 -59.5t119 -20q50 0 98.5 9.5t82 23t59.5 27.5t38 24l13 9l18 -246 q-4 -3 -11.5 -8t-35 -17t-59.5 -21.5t-85 -17.5t-112 -8q-56 0 -121 16.5t-133 47t-121 58t-123 66.5t-102 56l-33 123q-188 36 -290.5 180t-102.5 344zM350 535q0 -164 73 -263.5t193 -99.5q93 0 177 59t142 152t92 209t34 229q0 167 -71 269t-197 102q-57 0 -117.5 -25.5 t-119 -79.5t-104.5 -129.5t-74 -185.5t-28 -237z" />
<glyph unicode="R" horiz-adv-x="1140" d="M59 0l226 1159l8 209h422q106 0 196 -45t145.5 -129.5t55.5 -189.5q0 -168 -95.5 -293.5t-260.5 -184.5l336 -526h-312l-278 483h-21h-63l-58 -309l-8 -174h-293zM459 688h88q119 0 203 78t84 223q0 78 -52 129t-131 51h-96z" />
<glyph unicode="S" horiz-adv-x="952" d="M2 86l33 211q7 -5 20 -13t52 -28.5t77.5 -36t89.5 -28.5t95 -13q82 0 152.5 46.5t70.5 135.5q0 37 -25 74.5t-65 71.5t-88.5 70t-97.5 78.5t-89 88.5t-65 108t-25 130q0 118 70 213.5t178.5 145t228.5 49.5q88 0 174 -17t128 -34l42 -17l-92 -201l-15 6q-15 7 -42 17.5 t-59 21t-72 18t-76 7.5q-79 0 -133.5 -48.5t-54.5 -121.5q0 -48 24.5 -91.5t63.5 -79t86.5 -71t95 -76t86.5 -84.5t63.5 -105t24.5 -130q0 -116 -64.5 -210.5t-173.5 -147t-239 -52.5q-59 0 -120 11.5t-105.5 28t-80.5 33.5t-55 28z" />
<glyph unicode="T" horiz-adv-x="1124" d="M82 1161l41 207h1083l-39 -207h-387l-192 -987l-8 -174h-293l225 1161h-430z" />
<glyph unicode="U" horiz-adv-x="1384" d="M146 362q-2 32 -2 65q0 35 3 69q5 65 19 139l94 524l10 209h301l-137 -747q-19 -101 -19 -179q0 -270 222 -270q130 0 229.5 104t128.5 254l121 629l10 209h269l-160 -823q-51 -261 -209.5 -416.5t-400.5 -155.5q-102 0 -181.5 20t-133 54t-89 84.5t-53.5 106.5t-22 124z " />
<glyph unicode="V" horiz-adv-x="1273" d="M102 1368h318l139 -827l10 -158l66 152l471 833h270l-809 -1395l-194 41l-189 1100l2 -4z" />
<glyph unicode="W" horiz-adv-x="1918" d="M104 1368h318l139 -827l10 -158l72 152l252 434l-25 145l2 -4l-84 258h318l139 -827l10 -158l66 152l420 833h272l-741 -1395l-213 41l-107 619l-383 -660l-194 41l-189 1100l2 -4z" />
<glyph unicode="X" horiz-adv-x="1112" d="M-109 0l525 702l-189 519l-100 147h328l141 -383l18 -70l41 70l269 383h276l-495 -678l249 -690h-286l-148 410l-18 73l-41 -69l-289 -414h-281z" />
<glyph unicode="Y" horiz-adv-x="1095" d="M106 1368h310l153 -455l17 -86l57 101l309 440h277l-563 -772l-82 -422l-9 -174h-292l116 594l-196 596z" />
<glyph unicode="Z" horiz-adv-x="1169" d="M-55 0v72l807 979l106 108h-692l104 209h1006v-72l-809 -977l-111 -112h760l-43 -207h-1128z" />
<glyph unicode="[" horiz-adv-x="589" d="M8 -141l320 1644h411l-34 -178h-177l-249 -1286h176l-37 -180h-410z" />
<glyph unicode="\" horiz-adv-x="729" d="M-12 1346h237l527 -1846h-222z" />
<glyph unicode="]" horiz-adv-x="569" d="M-86 -141l37 180h174l250 1286h-176l34 178h412l-321 -1644h-410z" />
<glyph unicode="^" horiz-adv-x="1298" d="M102 655l457 795h176l457 -795h-231l-316 576l-317 -576h-226z" />
<glyph unicode="_" horiz-adv-x="1009" d="M0 -133h1053l-68 -164h-985v164z" />
<glyph unicode="`" horiz-adv-x="692" d="M61 1483h306l211 -279l-168 -57z" />
<glyph unicode="a" horiz-adv-x="1067" d="M47 313q0 113 26.5 223.5t77.5 205.5t120 167.5t160.5 114t191.5 41.5q52 0 188.5 -13.5t202.5 -17.5l-137 -708q-13 -64 -13 -113q0 -35 7 -65q16 -68 83 -140l-254 -35q-41 30 -61 79q-17 41 -17 67q0 5 1 10l2 14q-6 -7 -16.5 -18.5t-43.5 -40.5t-66.5 -51.5 t-80.5 -41t-90 -18.5q-117 0 -199 88t-82 252zM309 344q0 -67 20.5 -117.5t63.5 -50.5q44 0 102.5 40.5t94.5 81.5l37 40l102 545q-66 8 -92 8q-58 0 -117 -44t-105.5 -116.5t-76 -175.5t-29.5 -211z" />
<glyph unicode="b" horiz-adv-x="1085" d="M80 100l231 1217l6 209l295 30l-129 -630q6 6 17.5 15t44.5 33t65.5 42.5t75 33.5t78.5 15q116 0 194 -92t78 -258q0 -112 -22 -218.5t-68.5 -202t-112.5 -166.5t-160.5 -113t-205.5 -42q-52 0 -107.5 13.5t-88.5 27t-99.5 44.5t-91.5 42zM350 188q61 -32 129 -32 q84 0 153 78.5t105.5 199.5t36.5 252q0 87 -27 127.5t-67 40.5q-32 0 -91 -39t-102 -78l-43 -39z" />
<glyph unicode="c" horiz-adv-x="923" d="M47 408q0 152 43.5 278t117.5 208t170 126.5t202 44.5q72 0 159 -14.5t138 -28.5l51 -14l-64 -205q-18 8 -47 20t-97 31.5t-112 19.5q-72 0 -131.5 -37.5t-96 -97.5t-56 -130t-19.5 -140q0 -57 12 -106t36.5 -89.5t67.5 -64t101 -23.5q44 0 93.5 18.5t88 45t71 52.5 t49.5 44l18 19l16 -236q-7 -6 -19 -16.5t-53 -37.5t-85 -47.5t-112 -37.5t-136 -17q-101 0 -180.5 35t-127.5 96t-73 138t-25 166z" />
<glyph unicode="d" horiz-adv-x="1079" d="M51 330q0 115 22.5 222t71 200.5t117 163t167 109.5t216.5 40q57 0 139 -8l60 266v203l295 30l-240 -1230q-13 -63 -13 -112q0 -37 8 -66q16 -68 83 -140l-250 -35q-42 31 -62 82q-17 42 -17 77q0 7 1 13l2 17q-6 -8 -17.5 -20.5t-47 -45t-71 -57.5t-86 -45.5 t-95.5 -20.5q-116 0 -199.5 96t-83.5 261zM313 358q0 -89 25 -136.5t59 -47.5q40 0 103 43t106 86l43 43l101 533q-90 8 -140 8q-59 0 -110 -36t-84.5 -93t-57.5 -128.5t-34.5 -140.5t-10.5 -131z" />
<glyph unicode="e" horiz-adv-x="940" d="M59 420q0 173 67.5 319t195 235t288.5 89q151 0 229.5 -68.5t78.5 -179.5q0 -80 -34.5 -143.5t-91.5 -105t-137 -69.5t-163.5 -41t-178.5 -16q0 -108 56 -180t149 -72q48 0 100.5 19t93 46t74.5 54.5t52 46.5l18 19l16 -242q-6 -6 -16.5 -17t-49 -38t-82 -48t-113.5 -38 t-146 -17q-102 0 -181.5 36t-127.5 98.5t-72.5 142t-24.5 170.5zM332 600q123 15 171 28q151 47 152 167q0 44 -21 66t-54 22q-49 0 -91 -25.5t-72 -68.5t-50.5 -89.5t-34.5 -99.5z" />
<glyph unicode="f" horiz-adv-x="647" d="M-223 -305q122 0 205.5 84t105.5 227l125 840h-129l29 188h127l20 125q18 108 58.5 189t96 127t117.5 68t132 22q64 0 129.5 -20t98.5 -40l34 -20l-111 -201q-8 7 -22.5 17.5t-56 27.5t-79.5 17q-49 0 -87.5 -39t-51.5 -117l-24 -156h264l-99 -188h-192l-125 -848 q-33 -222 -164.5 -357.5t-333.5 -136.5z" />
<glyph unicode="g" horiz-adv-x="1034" d="M-121 -270l170 139q4 -7 13 -19t39.5 -42.5t65 -53.5t91 -42t117.5 -19q98 0 164.5 54.5t66.5 152.5q0 8 -4.5 61t-5.5 91q-1 8 -1 15q0 31 5 62q-5 -6 -14.5 -16.5t-39 -37.5t-60 -47.5t-73.5 -37.5t-83 -17q-116 0 -194.5 92.5t-78.5 258.5q0 115 23.5 222.5t72.5 202 t118.5 165t169 111t216.5 40.5q76 0 161 -8.5t132 -17.5l47 -9l-133 -668q-18 -97 -18 -194q0 -41 6 -135t6 -152q0 -115 -72 -203t-185 -132t-243 -44q-92 0 -175.5 23.5t-136.5 57t-92.5 67t-57.5 56.5zM330 352q0 -87 22 -126.5t56 -39.5q36 0 86 39t82 78l32 39l103 539 q-70 8 -117 8q-70 0 -132 -80t-97 -204t-35 -253z" />
<glyph unicode="h" horiz-adv-x="1120" d="M55 0l256 1321l11 205l290 30l-108 -548l-31 -95q31 29 73.5 59.5t119 61.5t147.5 31q76 0 128 -27.5t75 -73.5q24 -48 30 -108q2 -17 2 -35q0 -44 -12 -92l-108 -559l-13 -170h-276l127 670q4 21 6.5 41t3 55t-14 56.5t-42.5 21.5q-48 0 -117.5 -39t-114.5 -78l-45 -39 l-100 -514l-10 -174h-277z" />
<glyph unicode="i" horiz-adv-x="577" d="M55 0l160 827l12 207l289 31l-174 -889l-10 -176h-277zM293 1337q0 60 42 102t101 42q56 0 96.5 -42t40.5 -102q0 -57 -40.5 -97t-96.5 -40q-59 0 -101 40t-42 97z" />
<glyph unicode="j" horiz-adv-x="589" d="M-246 -289q131 0 210 64t106 207l161 841v-2l11 207l290 31l-210 -1086q-41 -213 -179 -341t-327 -130zM313 1337q0 60 42.5 102t101.5 42q56 0 96.5 -42t40.5 -102q0 -57 -40.5 -97t-96.5 -40q-59 0 -101.5 40t-42.5 97z" />
<glyph unicode="k" horiz-adv-x="1003" d="M51 0l256 1321l10 205l291 30l-184 -946l188 142q30 24 41 32.5t29.5 26t25.5 29.5t7 24q0 16 -20 31.5t-40 22.5l-20 8l211 137l15 -7.5t33 -22t42.5 -36.5t33.5 -50t15 -64q0 -77 -47.5 -136.5t-146.5 -113.5l-134 -72l310 -528l-250 -60l-307 566l-72 -365l-10 -174 h-277z" />
<glyph unicode="l" horiz-adv-x="542" d="M51 0l256 1321l10 205l291 30l-270 -1382l-10 -174h-277z" />
<glyph unicode="m" horiz-adv-x="1722" d="M55 0l162 823l-18 176l293 64l-23 -170q6 7 17.5 18.5t48.5 41t75 52.5t94.5 41.5t110.5 18.5q105 0 161.5 -50.5t67.5 -137.5q13 14 29 29.5t55 46.5t78 53.5t94.5 40.5t108.5 18q76 0 128 -27.5t75 -73.5q24 -48 30 -108q2 -17 1 -35q0 -44 -11 -92l-108 -559l-13 -170 h-276l127 670q11 53 11 89q0 85 -58 85q-43 0 -109 -36t-105.5 -67t-72.5 -61l-98 -510l-12 -170h-277l127 670q11 53 11 89q0 85 -58 85q-48 0 -117.5 -39t-114.5 -78l-45 -39l-100 -514l-14 -174h-275z" />
<glyph unicode="n" horiz-adv-x="1132" d="M55 0l162 823l-18 176l293 64l-23 -170q6 7 17.5 18.5t48.5 41t75 52.5t94.5 41.5t110.5 18.5q76 0 128 -27.5t75 -73.5q24 -48 30 -108q2 -17 1 -35q0 -44 -11 -92l-108 -559l-12 -170h-277l127 670q11 53 11 89q0 85 -58 85q-48 0 -117.5 -39t-114.5 -78l-45 -39 l-100 -514l-14 -174h-275z" />
<glyph unicode="o" horiz-adv-x="1038" d="M47 383q0 302 160 492t418 190q158 0 260 -108.5t102 -303.5q0 -136 -39.5 -258.5t-111.5 -216.5t-181.5 -149.5t-240.5 -55.5q-85 0 -151.5 27.5t-106 69.5t-65.5 98.5t-35 108.5t-9 106zM303 420q0 -120 38 -190t114 -70q46 0 92.5 29t87 84t65.5 147t25 205 q0 111 -41.5 183.5t-110.5 72.5q-75 0 -138.5 -70.5t-97.5 -176t-34 -214.5z" />
<glyph unicode="p" horiz-adv-x="1089" d="M-39 -492l256 1321l-16 172l291 64l-25 -168q5 7 15 18t42 40t65 51.5t82 40.5t95 18q113 0 189.5 -91t76.5 -259q0 -115 -21.5 -222t-67.5 -202t-112 -165.5t-161 -111.5t-209 -41q-21 0 -59 6.5t-66 12.5l-27 6l-59 -315l-10 -175h-279zM344 182q68 -20 117 -20 q93 0 165 75.5t108 193.5t36 255q0 84 -24 125t-62 41q-36 0 -96.5 -42t-103.5 -84l-42 -42z" />
<glyph unicode="q" horiz-adv-x="1093" d="M63 330q0 115 23 222t72 200.5t118.5 163t168.5 109.5t217 40q63 0 191 -13t198 -14l-254 -1306l-11 -224h-288l116 594q-5 -5 -15 -14t-40.5 -31t-60.5 -39t-71.5 -31t-78.5 -14q-116 0 -200.5 96t-84.5 261zM326 358q0 -90 25.5 -136t62.5 -46q38 0 100 42t105 84 l43 42l102 535q-14 1 -47.5 3t-64 3.5t-54.5 1.5q-69 0 -133 -77.5t-101.5 -200.5t-37.5 -251z" />
<glyph unicode="r" horiz-adv-x="821" d="M55 0l162 823l-16 185l288 57l-32 -219q5 9 14.5 23.5t40 52.5t62.5 67t81 52.5t97 23.5q36 0 70 -7.5t50 -15.5l17 -8l-90 -227q-58 24 -109 24q-56 0 -119.5 -63t-110 -154t-63.5 -176l-51 -264l-10 -174h-281z" />
<glyph unicode="s" horiz-adv-x="829" d="M31 94l16 225l11 -9q10 -8 28 -21.5t41.5 -29.5t52 -32.5t57.5 -30t60.5 -22t58.5 -8.5q53 0 99.5 32t46.5 89q0 33 -21 62t-54.5 52t-73.5 46.5t-80.5 52.5t-74 63t-54.5 85t-21 112q0 90 59.5 161.5t151 107.5t192.5 36q64 0 139 -14.5t119 -28.5l43 -14l-71 -195 l-14 7q-14 6 -40 16.5t-57 21t-70 18t-73 7.5q-55 0 -90 -29.5t-35 -69.5q0 -41 28 -76t70 -59.5t91.5 -57t91.5 -67t70 -91t28 -126.5q0 -78 -34.5 -143t-91.5 -106t-126.5 -63t-143.5 -22q-56 0 -110.5 12.5t-92.5 30.5t-67.5 35.5t-43.5 30.5z" />
<glyph unicode="t" horiz-adv-x="796" d="M102 846l39 188h121l37 180l283 33l-62 -213h314l-103 -188h-250l-102 -551q-2 -14 -2 -26q0 -29 13 -43q19 -22 46 -21q44 0 109.5 32.5t108.5 65.5l44 33v-238q-7 -5 -19 -13.5t-49 -30t-74.5 -38t-90 -30t-100.5 -13.5q-70 0 -126 24t-93 81t-37 141q0 13 29 169.5 t58 307.5l29 150h-123z" />
<glyph unicode="u" horiz-adv-x="1140" d="M98 305l107 559l10 170h279l-127 -669q-10 -49 -10 -84q0 -91 67 -91q26 0 63 18t72 44t66 52.5t50 44.5l19 18l97 493l14 174h274l-137 -708q-13 -63 -13 -112q-1 -37 7 -66q16 -68 84 -140l-250 -35q-42 31 -62 82q-17 42 -17 77q0 7 1 13l2 17q-6 -8 -17.5 -20.5 t-49.5 -45t-78.5 -57.5t-100.5 -45.5t-120 -20.5q-146 1 -202 93q-38 62 -37 148q0 42 9 91z" />
<glyph unicode="v" horiz-adv-x="970" d="M70 1026l284 39l92 -625l7 -174l86 174l159 262q47 75 47 154q0 34 -13.5 76.5t-27.5 67.5l-14 26l244 39q47 -92 47 -178q0 -119 -100 -275l-404 -639l-219 41l-125 820z" />
<glyph unicode="w" horiz-adv-x="1599" d="M70 1026l284 39l92 -625l7 -174l86 174l159 262q47 75 47 154q0 34 -13.5 76.5t-27.5 67.5l-14 26l268 39q36 -69 46 -143l71 -482l6 -174l86 174l160 262q47 75 47 154q0 34 -14 76.5t-28 67.5l-13 26l268 39q47 -92 47 -178q0 -119 -100 -275l-416 -639l-231 41 l-74 484l-324 -525l-231 41l-125 820z" />
<glyph unicode="x" horiz-adv-x="1003" d="M-80 0l457 520l-146 328l-120 178l286 37l154 -367l29 41l104 111q19 20 25.5 46t2 48t-12 41.5t-14.5 30.5l-7 12l264 37q4 -6 9 -17.5t11 -47.5q4 -22 5 -45q0 -13 -2 -27q-4 -36 -28.5 -89t-70.5 -102l-219 -227l238 -508h-275l-125 281l-16 49l-33 -51l-235 -279 h-281z" />
<glyph unicode="y" horiz-adv-x="995" d="M-227 -248q79 -31 149 -31q143 0 258 166l92 131l-24 58l-115 758l-63 192l284 39l92 -625l7 -174l86 174l159 262q47 75 47 154q0 34 -13.5 76.5t-27.5 67.5l-14 26l268 39q48 -92 48 -178q0 -118 -101 -275l-514 -817q-93 -147 -219.5 -220t-251.5 -73q-19 0 -53 6 t-58 12l-24 7z" />
<glyph unicode="z" horiz-adv-x="958" d="M-35 0v59l543 705l74 82h-504l92 188h795v-59l-543 -707l-72 -80h570l-37 -188h-918z" />
<glyph unicode="{" horiz-adv-x="616" d="M53 539l29 147q45 0 79 17.5t51.5 44.5t25.5 46.5t10 34.5l76 392q22 108 92 182.5t165.5 108.5t209.5 34l-25 -168q-164 0 -197 -164l-73 -383q-8 -41 -27.5 -78.5t-41 -62t-42 -43t-33.5 -27.5l-14 -8q2 -2 5 -4.5t13 -13.5t17.5 -22.5t18 -31t14.5 -40.5t7.5 -49 t-3.5 -58l-88 -557q-33 -164 135 -164l-25 -168q-118 0 -203 34t-127.5 109t-21.5 183l88 565q2 11 3 25.5t-4 36.5t-16 39.5t-36.5 30t-61.5 12.5z" />
<glyph unicode="|" horiz-adv-x="485" d="M129 -520v2068h227v-2068h-227z" />
<glyph unicode="}" horiz-adv-x="616" d="M-158 -496l25 168q168 0 201 164l108 557q8 41 26.5 78.5t39.5 62t40.5 43t32.5 27.5l13 8q-2 2 -5.5 4.5t-14 13.5t-18 22.5t-18.5 31t-14.5 40.5t-6.5 49t5 58l74 383q33 164 -135 164l24 168q118 0 203.5 -34t128 -108.5t20.5 -182.5l-75 -392q-2 -12 -2 -25.5 t4.5 -36t15.5 -39.5t36.5 -29.5t61.5 -12.5l-28 -147q-36 0 -65.5 -13t-46 -29.5t-29 -40t-16.5 -36t-7 -25.5l-109 -565q-22 -108 -91.5 -183t-165 -109t-212.5 -34z" />
<glyph unicode="~" horiz-adv-x="1204" d="M70 594q154 131 315 131q64 0 129 -18t109.5 -39.5t99 -39.5t98.5 -18q110 0 226 103l92 -183q-59 -61 -146.5 -99t-179.5 -38q-57 0 -119.5 18t-108.5 39.5t-105.5 39.5t-112.5 18q-131 0 -213 -94z" />
<glyph unicode="&#xa1;" horiz-adv-x="540" d="M-27 -227l287 1177l182 -22l-135 -924l-8 -190zM250 1217q0 64 43 107.5t110 43.5t110.5 -43.5t43.5 -107.5q0 -61 -44.5 -107.5t-109.5 -46.5t-109 46.5t-44 107.5z" />
<glyph unicode="&#xa2;" horiz-adv-x="923" d="M47 408q0 152 43.5 278t117.5 208t170 126.5t202 44.5h22l33 164h125l-35 -176q49 -7 100 -18.5t77 -18.5l26 -8l-64 -205q-90 39 -176 59l-129 -674q64 11 135 55.5t110 82.5l38 39l16 -236q-6 -5 -16 -14t-44.5 -32.5t-71.5 -42.5t-94 -38t-114 -25l-39 -200h-125 l39 200q-115 12 -194.5 75t-115.5 154t-36 202zM305 469q0 -95 32 -166.5t99 -99.5l129 667q-82 -14 -143 -80t-89 -150t-28 -171z" />
<glyph unicode="&#xa3;" horiz-adv-x="1124" d="M-131 -209q1 0 25.5 39.5t63 110.5t79 155.5t78.5 190.5t57 200l10 52h-125l35 180h125l78 397q21 108 74 191.5t127.5 134.5t162.5 76.5t185 25.5q66 0 129 -13.5t106 -33t76.5 -38.5t49.5 -33l16 -13l-105 -184q-5 5 -14.5 13.5t-39.5 30t-62 38t-79 30t-92 13.5 q-98 0 -173 -55t-97 -166l-82 -414h402l-84 -180h-353l-12 -70q-17 -98 -66.5 -219.5t-87.5 -193.5l-38 -72h788l-74 -193h-1083z" />
<glyph unicode="&#xa5;" horiz-adv-x="1095" d="M70 225l32 172h260l33 162h-260l33 172h186l-145 459l-98 178h311l151 -467l13 -80l45 80l332 467h274l-479 -637h231l-69 -172h-258l-33 -162h274l-69 -172h-238l-10 -49l-11 -176h-288l43 225h-260z" />
<glyph unicode="&#xa7;" horiz-adv-x="860" d="M-51 -211l39 199q93 -137 217 -156v1368q0 105 64 185.5t161.5 120.5t208.5 40q65 0 121 -16t89.5 -39t57.5 -45.5t33 -38.5l10 -16l-39 -199q-94 137 -217 156v-1334q0 -88 -37 -161.5t-99 -120.5t-139.5 -73t-160.5 -26q-65 0 -121 16t-89 39t-57 46t-33 39zM399 -145 l11 5.5t24.5 15t30.5 25t24 35t11 44.5v1351q-4 -2 -11 -6t-24.5 -16.5t-30.5 -27t-24 -36.5t-11 -45v-1345z" />
<glyph unicode="&#xa8;" horiz-adv-x="786" d="M94 1305q0 52 34.5 89.5t80.5 37.5t80.5 -37.5t34.5 -89.5t-34.5 -88.5t-80.5 -36.5t-80.5 36.5t-34.5 88.5zM471 1305q0 52 34 89.5t81 37.5q46 0 80 -37.5t34 -89.5t-34 -88.5t-80 -36.5q-47 0 -81 36.5t-34 88.5z" />
<glyph unicode="&#xa9;" horiz-adv-x="1638" d="M102 659q0 328 206.5 518.5t561.5 190.5q192 0 344.5 -87t237 -240.5t84.5 -344.5q0 -331 -201.5 -527t-548.5 -196q-193 0 -350 90t-245.5 247t-88.5 349zM295 684q0 -254 145 -402.5t391 -148.5q140 0 257 64.5t188.5 188.5t71.5 284q0 244 -146 393t-375 149 q-109 0 -206 -36.5t-169.5 -102.5t-114.5 -167t-42 -222zM455 664q0 174 100 291.5t283 117.5q65 0 132 -26t102 -52l34 -26l-76 -148q-11 10 -29.5 24.5t-70.5 39t-96 24.5q-73 0 -121.5 -63.5t-48.5 -159.5q0 -95 50 -163t130 -68q50 0 109 25t93 50l33 25l21 -162 q-4 -4 -13 -11.5t-38.5 -25.5t-62.5 -32.5t-85.5 -26t-107.5 -12.5q-107 -1 -185.5 54.5t-115.5 140t-37 184.5z" />
<glyph unicode="&#xaa;" horiz-adv-x="860" d="M100 823q0 86 20.5 169t60 154.5t92.5 126t123.5 85.5t148.5 31q19 0 129 -10t176 -13q-113 -586 -113 -618q0 -82 66 -154l-207 -29q-28 20 -45 57t-19 64q-4 -5 -10.5 -13t-28.5 -28.5t-45 -36t-57 -28.5t-67 -13q-95 0 -159.5 65.5t-64.5 190.5zM322 846q0 -47 14 -85 t41 -38q24 0 48.5 12.5t43.5 29.5t34.5 34.5t23.5 30.5l8 12l77 407q-32 6 -57 6q-55 0 -109 -55t-89 -150.5t-35 -203.5z" />
<glyph unicode="&#xab;" horiz-adv-x="1351" d="M51 508l629 500l80 -189l-395 -317l264 -309l-148 -185zM602 508l629 500l80 -189l-396 -317l265 -309l-148 -185z" />
<glyph unicode="&#xac;" horiz-adv-x="1095" />
<glyph unicode="&#xad;" horiz-adv-x="638" d="M33 399v213h596l-58 -213h-538z" />
<glyph unicode="&#xae;" horiz-adv-x="1638" d="M102 659q0 328 206.5 518.5t561.5 190.5q192 0 344.5 -87t237 -240.5t84.5 -344.5q0 -331 -201.5 -527t-548.5 -196q-193 0 -350 90t-245.5 247t-88.5 349zM295 684q0 -254 145 -402.5t391 -148.5q140 0 257 64.5t188.5 188.5t71.5 284q0 244 -146 393t-375 149 q-109 0 -206 -36.5t-169.5 -102.5t-114.5 -167t-42 -222zM545 1061h254q121 0 206 -63.5t85 -178.5q0 -60 -40.5 -120t-103.5 -89l250 -291h-248l-182 269v-162q0 -14 14 -107h-221v611zM766 686h8q52 0 91.5 35t39.5 98q0 61 -38 88t-93 27h-8v-248z" />
<glyph unicode="&#xaf;" horiz-adv-x="686" d="M68 1161l18 201h561l-72 -201h-507z" />
<glyph unicode="&#xb0;" horiz-adv-x="837" d="M57 1180q0 138 103 240t239 102q139 0 244 -101.5t105 -240.5t-105 -240.5t-244 -101.5q-136 0 -239 102t-103 240zM242 1182q0 -63 46.5 -115.5t112.5 -52.5q72 0 117 51.5t45 116.5q0 63 -49.5 110t-112.5 47q-65 0 -112 -46.5t-47 -110.5z" />
<glyph unicode="&#xb1;" horiz-adv-x="985" d="M88 561v201h293v276l225 -61v-215h309l-51 -201h-258v-233h-225v233h-293zM137 0v213h721l-57 -213h-664z" />
<glyph unicode="&#xb2;" horiz-adv-x="700" d="M53 586v96q163 136 242 222q139 150 139 237q0 63 -61 63q-67 0 -156 -61l-57 147q126 99 282 99q99 0 165.5 -50t66.5 -143q0 -180 -316 -440h287l-47 -170h-545z" />
<glyph unicode="&#xb3;" horiz-adv-x="718" d="M53 729q66 -8 107 -8q48 0 93 7.5t86 23.5t66 46t25 70q0 39 -53.5 55.5t-126.5 16.5l31 94q32 13 50 21t45 23t41 29.5t25 36t11 46.5q0 53 -70 53q-36 0 -77.5 -14.5t-65.5 -28.5l-23 -14l-35 125q12 8 34.5 20.5t92 33.5t137.5 21q99 0 168.5 -43.5t69.5 -119.5 q0 -23 -2 -33q-7 -45 -50.5 -89.5t-99.5 -72.5q53 -9 87 -55.5t34 -106.5q0 -80 -45 -139.5t-117 -91t-146.5 -46t-149.5 -14.5q-59 0 -123 11z" />
<glyph unicode="&#xb4;" horiz-adv-x="692" d="M113 1204l260 279h305l-410 -336z" />
<glyph unicode="&#xb6;" horiz-adv-x="1355" d="M96 645q0 140 64.5 273.5t170 231.5t247.5 158t290 60h154l-363 -1868h-194l125 650q-218 15 -356 152.5t-138 342.5zM793 -500l362 1868h195l-363 -1868h-194z" />
<glyph unicode="&#xb7;" horiz-adv-x="528" d="M104 502q0 61 44 107t110 46t110 -46t44 -107q0 -64 -43.5 -108t-110.5 -44t-110.5 44t-43.5 108z" />
<glyph unicode="&#xb8;" horiz-adv-x="823" d="M117 -401l73 141q29 -33 78 -48.5t90 -15.5q34 0 57 13.5t23 42.5q0 26 -34.5 53t-78.5 57.5t-59 57.5l35 106h125q18 -26 58 -57t73.5 -55t60.5 -61t27 -77q0 -62 -26.5 -109.5t-70.5 -74t-94.5 -40t-105.5 -13.5q-124 0 -231 80z" />
<glyph unicode="&#xb9;" horiz-adv-x="673" d="M104 584l27 145h154l73 418l-118 -35l-31 139l414 125l-115 -647h156l-48 -145h-512z" />
<glyph unicode="&#xba;" horiz-adv-x="935" d="M156 877q0 228 123 370t323 142q124 0 204.5 -81.5t80.5 -228.5q0 -138 -51.5 -253t-154 -187t-237.5 -72q-67 0 -119 20.5t-83 52.5t-51 75t-27.5 82.5t-7.5 79.5zM373 903q0 -89 25 -140.5t77 -51.5q70 0 130.5 92.5t60.5 253.5q0 81 -28.5 135.5t-74.5 54.5 q-53 0 -97.5 -52.5t-68.5 -131t-24 -160.5z" />
<glyph unicode="&#xbb;" horiz-adv-x="1351" d="M41 197l395 317l-264 309l147 185l431 -500l-629 -500zM592 197l395 317l-264 309l147 185l430 -500l-628 -500z" />
<glyph unicode="&#xbc;" horiz-adv-x="1536" d="M68 588l26 145h154l74 418l-119 -35l-31 139l414 125l-115 -647h156l-47 -145h-512zM397 182l707 1026l168 -63l-666 -963h-209zM762 162l475 545l174 -54l-76 -430h144l-68 -162h-104l-11 -53l-6 -129h-235l32 182h-321zM942 219l45 4h131l27 178l18 76l-49 -76 l-125 -145z" />
<glyph unicode="&#xbd;" horiz-adv-x="1515" d="M68 584l26 145h154l74 418l-119 -35l-31 139l414 125l-115 -647h156l-47 -145h-512zM377 182l706 1026l168 -63l-665 -963h-209zM854 -25q163 136 242 222q139 150 139 237q0 64 -61 64q-66 0 -156 -62l-57 148q124 98 282 98q99 0 165.5 -50t66.5 -143q0 -180 -316 -440 h287l-47 -170h-545v96z" />
<glyph unicode="&#xbe;" horiz-adv-x="1492" d="M53 729q66 -8 107 -8q48 0 93 7.5t86 23.5t66 46t25 70q0 39 -53.5 55.5t-126.5 16.5l31 94q32 13 50 21t45 23t41 29.5t25 36t11 46.5q0 53 -70 53q-36 0 -77.5 -14.5t-65.5 -28.5l-23 -14l-35 125q12 8 34.5 20.5t92 33.5t137.5 21q99 0 168.5 -43.5t69.5 -119.5 q0 -23 -2 -33q-7 -45 -50.5 -89.5t-99.5 -72.5q53 -9 87 -55.5t34 -106.5q0 -80 -45 -139.5t-117 -91t-146.5 -46t-149.5 -14.5q-59 0 -123 11zM354 182l707 1026l168 -63l-666 -963h-209zM719 162l475 545l174 -54l-76 -430h144l-68 -162h-104l-11 -53l-6 -129h-235l32 182 h-321zM899 219l45 4h131l27 178l18 76l-49 -76l-125 -145z" />
<glyph unicode="&#xbf;" horiz-adv-x="849" d="M6 131q0 70 41.5 147.5t103.5 143.5t134.5 138t134.5 132.5t103.5 125t41.5 116.5q0 19 -4 35l201 -82q4 -11 4 -25q0 -60 -51 -136t-123.5 -148l-145 -144t-123.5 -145t-51 -129q0 -70 44.5 -109t115.5 -39q41 0 96 19.5t90 38.5l35 20l31 -233q-17 -7 -46.5 -18 t-110 -29.5t-148.5 -18.5q-75 0 -139 18.5t-118 56.5t-85 106t-31 159zM522 1223q0 64 43.5 107.5t110.5 43.5t110 -43.5t43 -107.5q0 -61 -44 -107.5t-109 -46.5t-109.5 46.5t-44.5 107.5z" />
<glyph unicode="&#xc0;" horiz-adv-x="1130" d="M-170 0l776 1352l203 41l197 -1137l65 -256h-291l-53 317h-461l-182 -317h-254zM356 1792h306l210 -279l-167 -57zM383 528h313l-59 398l-2 80l-35 -80z" />
<glyph unicode="&#xc1;" horiz-adv-x="1130" d="M-170 0l776 1352l203 41l197 -1137l65 -256h-291l-53 317h-461l-182 -317h-254zM383 528h313l-59 398l-2 80l-35 -80zM514 1513l260 279h305l-409 -336z" />
<glyph unicode="&#xc2;" horiz-adv-x="1130" d="M-170 0l776 1352l203 41l197 -1137l65 -256h-291l-53 317h-461l-182 -317h-254zM344 1520l258 272h209l209 -272l-166 -62l-162 191l-194 -191zM383 528h313l-59 398l-2 80l-35 -80z" />
<glyph unicode="&#xc3;" horiz-adv-x="1130" d="M-170 0l776 1352l203 41l197 -1137l65 -256h-291l-53 317h-461l-182 -317h-254zM330 1552q2 6 7 16t24.5 36t43.5 46t66.5 36t91.5 16q45 0 92 -18t85 -36t63 -18q98 0 133 72l111 -80q-2 -6 -6 -15.5t-21 -34.5t-40 -44.5t-66 -35t-95 -15.5q-54 0 -103.5 17.5t-86 34.5 t-58.5 17q-41 0 -74.5 -17t-46.5 -35l-14 -17zM383 528h313l-59 398l-2 80l-35 -80z" />
<glyph unicode="&#xc4;" horiz-adv-x="1130" d="M-170 0l776 1352l203 41l197 -1137l65 -256h-291l-53 317h-461l-182 -317h-254zM383 528h313l-59 398l-2 80l-35 -80zM389 1614q0 52 34.5 89.5t80.5 37.5t80 -37.5t34 -89.5t-34 -88.5t-80 -36.5t-80.5 36.5t-34.5 88.5zM766 1614q0 52 34 89.5t81 37.5q46 0 80 -37.5 t34 -89.5t-34 -88.5t-80 -36.5q-47 0 -81 36.5t-34 88.5z" />
<glyph unicode="&#xc5;" horiz-adv-x="1130" d="M-170 0l776 1352l203 41l197 -1137l65 -256h-291l-53 317h-461l-182 -317h-254zM383 528h313l-59 398l-2 80l-35 -80zM510 1620q0 73 54.5 126.5t127.5 53.5q74 0 130.5 -53.5t56.5 -126.5t-56.5 -126.5t-130.5 -53.5q-73 0 -127.5 53.5t-54.5 126.5zM606 1622 q0 -36 25.5 -66t62.5 -30q40 0 64 29.5t24 66.5q0 35 -27 61.5t-61 26.5q-36 0 -62 -26t-26 -62z" />
<glyph unicode="&#xc6;" horiz-adv-x="1611" d="M-162 0l930 1368h854l-39 -203h-489l-70 -362h432l-90 -203h-381l-78 -397h516l-90 -203h-731l64 336h-353l-223 -336h-252zM442 528h263l129 602z" />
<glyph unicode="&#xc7;" horiz-adv-x="1257" d="M119 532q0 245 97 440t275.5 306t407.5 111q61 0 126.5 -14t116 -34.5t92.5 -41t64 -34.5l23 -14l-127 -184l-17 12q-17 12 -48.5 30.5t-69 36.5t-85.5 31t-91 13q-96 0 -186 -49.5t-157.5 -133.5t-108 -203t-40.5 -251q0 -75 20.5 -140.5t59.5 -117.5t102.5 -82.5 t143.5 -30.5q71 0 141.5 23.5t121 56.5t90.5 66t60 56l21 24l18 -248q-7 -7 -20 -18.5t-58 -41t-93.5 -53t-124 -45.5t-152.5 -27q19 -18 58.5 -47t65 -49.5t47 -53.5t21.5 -69q0 -62 -26.5 -109.5t-70.5 -74t-94.5 -40t-105.5 -13.5q-124 0 -231 80l74 141q29 -33 78 -48.5 t90 -15.5q34 0 57 13.5t23 42.5q0 26 -34.5 53t-78.5 57.5t-59 57.5l26 84q-202 34 -322 182.5t-120 365.5z" />
<glyph unicode="&#xc8;" horiz-adv-x="1034" d="M72 0l225 1159l8 209h739l-34 -203h-443l-73 -362h413l-76 -203h-376l-74 -397h496l-80 -203h-725zM297 1792h305l211 -279l-168 -57z" />
<glyph unicode="&#xc9;" horiz-adv-x="1034" d="M72 0l225 1159l8 209h739l-34 -203h-443l-73 -362h413l-76 -203h-376l-74 -397h496l-80 -203h-725zM455 1513l260 279h305l-410 -336z" />
<glyph unicode="&#xca;" horiz-adv-x="1034" d="M72 0l225 1159l8 209h739l-34 -203h-443l-73 -362h413l-76 -203h-376l-74 -397h496l-80 -203h-725zM285 1520l258 272h209l209 -272l-166 -62l-162 191l-195 -191z" />
<glyph unicode="&#xcb;" horiz-adv-x="1034" d="M72 0l225 1159l8 209h739l-34 -203h-443l-73 -362h413l-76 -203h-376l-74 -397h496l-80 -203h-725zM330 1614q0 52 34 89.5t80 37.5t80.5 -37.5t34.5 -89.5t-34.5 -88.5t-80.5 -36.5t-80 36.5t-34 88.5zM707 1614q0 53 33.5 90t80.5 37q46 0 80.5 -37.5t34.5 -89.5 t-34.5 -88.5t-80.5 -36.5q-47 0 -80.5 36.5t-33.5 88.5z" />
<glyph unicode="&#xcc;" horiz-adv-x="632" d="M72 0l227 1163l8 205h299l-233 -1194l-8 -174h-293zM104 1792h306l211 -279l-168 -57z" />
<glyph unicode="&#xcd;" horiz-adv-x="632" d="M72 0l227 1163l8 205h299l-233 -1194l-8 -174h-293zM262 1513l260 279h305l-409 -336z" />
<glyph unicode="&#xce;" horiz-adv-x="632" d="M72 0l227 1163l8 205h299l-233 -1194l-8 -174h-293zM92 1520l258 272h209l209 -272l-166 -62l-162 191l-194 -191z" />
<glyph unicode="&#xcf;" horiz-adv-x="632" d="M72 0l227 1163l8 205h299l-233 -1194l-8 -174h-293zM137 1614q0 52 34.5 89.5t80.5 37.5t80.5 -37.5t34.5 -89.5t-34.5 -88.5t-80.5 -36.5t-80.5 36.5t-34.5 88.5zM514 1614q0 52 34 89.5t81 37.5q46 0 80 -37.5t34 -89.5t-34 -88.5t-80 -36.5q-47 0 -81 36.5t-34 88.5z " />
<glyph unicode="&#xd0;" horiz-adv-x="1374" d="M57 590l35 213h141l70 356l8 209h545q208 0 339.5 -148.5t131.5 -388.5q0 -134 -34 -258.5t-100.5 -228t-158 -181t-213.5 -120.5t-260 -43h-483l115 590h-136zM383 199h203q91 0 176.5 47.5t149.5 128.5t102.5 194.5t38.5 237.5q0 93 -30.5 173.5t-96.5 134.5t-156 54 h-199l-71 -366h225l-86 -213h-180z" />
<glyph unicode="&#xd1;" horiz-adv-x="1511" d="M72 0l221 1157l-21 211h222l526 -799l76 -157l133 747l8 209h270l-229 -1194l-18 -174h-168l-533 770l-76 164l-141 -760l-8 -174h-262zM535 1552q2 6 7 16t24.5 36t43.5 46t66.5 36t91.5 16q45 0 92 -18t85 -36t63 -18q98 0 133 72l110 -80q-2 -6 -5.5 -15.5t-21 -34.5 t-40 -44.5t-65.5 -35t-95 -15.5q-54 0 -103.5 17.5t-86 34.5t-58.5 17q-41 0 -74.5 -17t-47.5 -35l-13 -17z" />
<glyph unicode="&#xd2;" horiz-adv-x="1349" d="M68 510q0 142 31.5 273t94 241t149.5 191.5t205.5 127.5t254.5 46q114 0 206 -35t149 -89.5t95.5 -126.5t54 -141t15.5 -137q0 -193 -55.5 -358.5t-153.5 -281.5t-236 -181.5t-298 -65.5q-123 0 -221.5 42.5t-161 116.5t-96 170.5t-33.5 207.5zM340 535q0 -164 73 -263.5 t193 -99.5q93 0 177 59t142 152t92 209t34 229q0 166 -71.5 268.5t-197.5 102.5q-57 0 -117.5 -25.5t-118.5 -79.5t-104 -129.5t-74 -185.5t-28 -237zM469 1792h305l211 -279l-168 -57z" />
<glyph unicode="&#xd3;" horiz-adv-x="1349" d="M68 510q0 142 31.5 273t94 241t149.5 191.5t205.5 127.5t254.5 46q114 0 206 -35t149 -89.5t95.5 -126.5t54 -141t15.5 -137q0 -193 -55.5 -358.5t-153.5 -281.5t-236 -181.5t-298 -65.5q-123 0 -221.5 42.5t-161 116.5t-96 170.5t-33.5 207.5zM340 535q0 -164 73 -263.5 t193 -99.5q93 0 177 59t142 152t92 209t34 229q0 166 -71.5 268.5t-197.5 102.5q-57 0 -117.5 -25.5t-118.5 -79.5t-104 -129.5t-74 -185.5t-28 -237zM627 1513l260 279h305l-410 -336z" />
<glyph unicode="&#xd4;" horiz-adv-x="1349" d="M68 510q0 142 31.5 273t94 241t149.5 191.5t205.5 127.5t254.5 46q114 0 206 -35t149 -89.5t95.5 -126.5t54 -141t15.5 -137q0 -193 -55.5 -358.5t-153.5 -281.5t-236 -181.5t-298 -65.5q-123 0 -221.5 42.5t-161 116.5t-96 170.5t-33.5 207.5zM340 535q0 -164 73 -263.5 t193 -99.5q93 0 177 59t142 152t92 209t34 229q0 166 -71.5 268.5t-197.5 102.5q-57 0 -117.5 -25.5t-118.5 -79.5t-104 -129.5t-74 -185.5t-28 -237zM457 1520l258 272h209l209 -272l-166 -62l-162 191l-195 -191z" />
<glyph unicode="&#xd5;" horiz-adv-x="1349" d="M68 510q0 142 31.5 273t94 241t149.5 191.5t205.5 127.5t254.5 46q114 0 206 -35t149 -89.5t95.5 -126.5t54 -141t15.5 -137q0 -193 -55.5 -358.5t-153.5 -281.5t-236 -181.5t-298 -65.5q-123 0 -221.5 42.5t-161 116.5t-96 170.5t-33.5 207.5zM340 535q0 -164 73 -263.5 t193 -99.5q93 0 177 59t142 152t92 209t34 229q0 166 -71.5 268.5t-197.5 102.5q-57 0 -117.5 -25.5t-118.5 -79.5t-104 -129.5t-74 -185.5t-28 -237zM442 1552q2 6 7 16t24.5 36t44 46t67 36t91.5 16q45 0 91.5 -18t84.5 -36t63 -18q99 0 134 72l110 -80q-2 -6 -5.5 -15.5 t-21 -34.5t-40 -44.5t-65.5 -35t-95 -15.5q-54 0 -103.5 17.5t-86 34.5t-58.5 17q-41 0 -74.5 -17t-47.5 -35l-13 -17z" />
<glyph unicode="&#xd6;" horiz-adv-x="1349" d="M68 510q0 142 31.5 273t94 241t149.5 191.5t205.5 127.5t254.5 46q114 0 206 -35t149 -89.5t95.5 -126.5t54 -141t15.5 -137q0 -193 -55.5 -358.5t-153.5 -281.5t-236 -181.5t-298 -65.5q-123 0 -221.5 42.5t-161 116.5t-96 170.5t-33.5 207.5zM340 535q0 -164 73 -263.5 t193 -99.5q93 0 177 59t142 152t92 209t34 229q0 166 -71.5 268.5t-197.5 102.5q-57 0 -117.5 -25.5t-118.5 -79.5t-104 -129.5t-74 -185.5t-28 -237zM502 1614q0 52 34 89.5t80 37.5t80.5 -37.5t34.5 -89.5t-34.5 -88.5t-80.5 -36.5t-80 36.5t-34 88.5zM879 1614 q0 53 33.5 90t80.5 37q46 0 80.5 -37.5t34.5 -89.5t-34.5 -88.5t-80.5 -36.5q-47 0 -80.5 36.5t-33.5 88.5z" />
<glyph unicode="&#xd7;" horiz-adv-x="899" d="M49 766l184 104l209 -213l256 258l109 -192l-213 -211l240 -242l-144 -143l-241 240l-236 -236l-145 148l235 237z" />
<glyph unicode="&#xd8;" horiz-adv-x="1349" d="M68 510q0 142 31.5 273t94 241t149.5 191.5t205.5 127.5t254.5 46q123 0 215 -39l78 125l145 -37l-100 -160q93 -79 137.5 -193t44.5 -225q0 -193 -55.5 -358.5t-153.5 -281.5t-236 -181.5t-298 -65.5q-128 0 -226 45l-92 -147l-127 47l105 170q-84 74 -128 183.5 t-44 238.5zM340 535q0 -131 43 -216l518 842q-60 31 -119 31q-57 0 -117.5 -25.5t-118.5 -79.5t-104 -129.5t-74 -185.5t-28 -237zM475 211q53 -39 131 -39q93 0 177 59t142 152t92 209t34 229q0 134 -50 232z" />
<glyph unicode="&#xd9;" horiz-adv-x="1384" d="M146.5 362.5q-4.5 68.5 0.5 133.5t19 139l94 524l10 209h301l-137 -747q-83 -449 203 -449q130 0 229.5 104t128.5 254l121 629l10 209h269l-160 -823q-51 -261 -209.5 -416.5t-400.5 -155.5q-102 0 -181.5 20t-133 54t-89 84.5t-53 106.5t-22 124.5zM475 1792h305 l211 -279l-168 -57z" />
<glyph unicode="&#xda;" horiz-adv-x="1384" d="M146.5 362.5q-4.5 68.5 0.5 133.5t19 139l94 524l10 209h301l-137 -747q-83 -449 203 -449q130 0 229.5 104t128.5 254l121 629l10 209h269l-160 -823q-51 -261 -209.5 -416.5t-400.5 -155.5q-102 0 -181.5 20t-133 54t-89 84.5t-53 106.5t-22 124.5zM633 1513l260 279 h305l-410 -336z" />
<glyph unicode="&#xdb;" horiz-adv-x="1384" d="M146.5 362.5q-4.5 68.5 0.5 133.5t19 139l94 524l10 209h301l-137 -747q-83 -449 203 -449q130 0 229.5 104t128.5 254l121 629l10 209h269l-160 -823q-51 -261 -209.5 -416.5t-400.5 -155.5q-102 0 -181.5 20t-133 54t-89 84.5t-53 106.5t-22 124.5zM463 1520l258 272 h209l209 -272l-166 -62l-162 191l-195 -191z" />
<glyph unicode="&#xdc;" horiz-adv-x="1384" d="M146.5 362.5q-4.5 68.5 0.5 133.5t19 139l94 524l10 209h301l-137 -747q-83 -449 203 -449q130 0 229.5 104t128.5 254l121 629l10 209h269l-160 -823q-51 -261 -209.5 -416.5t-400.5 -155.5q-102 0 -181.5 20t-133 54t-89 84.5t-53 106.5t-22 124.5zM508 1614 q0 52 34.5 89.5t80.5 37.5t80 -37.5t34 -89.5t-34 -88.5t-80 -36.5t-80.5 36.5t-34.5 88.5zM885 1614q0 53 33.5 90t80.5 37q46 0 80.5 -37.5t34.5 -89.5t-34.5 -88.5t-80.5 -36.5q-47 0 -80.5 36.5t-33.5 88.5z" />
<glyph unicode="&#xdd;" horiz-adv-x="1095" d="M106 1368h310l153 -455l17 -86l57 101l309 440h277l-563 -772l-82 -422l-9 -174h-292l116 594l-196 596zM532 1513l261 279h305l-410 -336z" />
<glyph unicode="&#xde;" horiz-adv-x="1056" d="M59 0l254 1298l19 230l297 20l-60 -303h121q106 0 196 -45t145.5 -129.5t55.5 -189.5q0 -153 -80 -272t-223 -184t-327 -65h-64l-33 -186l-8 -174h-293zM434 565h88q119 0 203 78t84 223q0 78 -51.5 129.5t-130.5 51.5h-97z" />
<glyph unicode="&#xdf;" horiz-adv-x="1167" d="M-209 -305q110 0 187 84t102 227q22 145 66.5 419.5t66.5 418.5h-129l29 188h127l20 127q14 85 49.5 154.5t85 116t111.5 78t128 45.5t136 14q81 0 152 -16.5t127.5 -49t89 -87t32.5 -124.5q0 -63 -34.5 -125t-83 -111t-97.5 -93.5t-83.5 -88t-34.5 -79.5q0 -37 28 -78.5 t68 -80.5t80 -81.5t68 -98.5t28 -114q0 -154 -126 -260.5t-322 -106.5q-40 0 -79 8t-65.5 20t-48 24t-31.5 20l-10 8l64 187q6 -6 28 -21.5t69.5 -36t90.5 -20.5q59 0 108.5 36t49.5 97q0 41 -18 79.5t-45 68t-59 63t-59 64t-45 71.5t-18 84q0 69 34 135t82 118t96 99.5 t82 97.5t34 95q0 53 -43 79.5t-101 26.5q-101 0 -173.5 -54t-84.5 -132l-192 -1192q-24 -147 -86.5 -256t-166 -173t-237.5 -65z" />
<glyph unicode="&#xe0;" horiz-adv-x="1067" d="M47 313q0 113 26.5 223.5t77.5 205.5t120 167.5t160.5 114t191.5 41.5q52 0 188.5 -13.5t202.5 -17.5l-137 -708q-22 -110 -6 -178.5t83 -139.5l-254 -35q-41 30 -61 79t-16 77l2 14q-6 -7 -16.5 -18.5t-43.5 -40.5t-66.5 -51.5t-80.5 -41t-90 -18.5q-117 0 -199 88 t-82 252zM309 344q0 -67 20.5 -117.5t63.5 -50.5q44 0 102.5 40.5t94.5 81.5l37 40l102 545q-66 8 -92 8q-58 0 -117 -44t-105.5 -116.5t-76 -175.5t-29.5 -211zM317 1483h306l211 -279l-168 -57z" />
<glyph unicode="&#xe1;" horiz-adv-x="1067" d="M47 313q0 113 26.5 223.5t77.5 205.5t120 167.5t160.5 114t191.5 41.5q52 0 188.5 -13.5t202.5 -17.5l-137 -708q-22 -110 -6 -178.5t83 -139.5l-254 -35q-41 30 -61 79t-16 77l2 14q-6 -7 -16.5 -18.5t-43.5 -40.5t-66.5 -51.5t-80.5 -41t-90 -18.5q-117 0 -199 88 t-82 252zM309 344q0 -67 20.5 -117.5t63.5 -50.5q44 0 102.5 40.5t94.5 81.5l37 40l102 545q-66 8 -92 8q-58 0 -117 -44t-105.5 -116.5t-76 -175.5t-29.5 -211zM475 1204l260 279h305l-409 -336z" />
<glyph unicode="&#xe2;" horiz-adv-x="1067" d="M47 313q0 113 26.5 223.5t77.5 205.5t120 167.5t160.5 114t191.5 41.5q52 0 188.5 -13.5t202.5 -17.5l-137 -708q-22 -110 -6 -178.5t83 -139.5l-254 -35q-41 30 -61 79t-16 77l2 14q-6 -7 -16.5 -18.5t-43.5 -40.5t-66.5 -51.5t-80.5 -41t-90 -18.5q-117 0 -199 88 t-82 252zM305 1210l258 273h209l209 -273l-166 -61l-162 190l-194 -190zM309 344q0 -67 20.5 -117.5t63.5 -50.5q44 0 102.5 40.5t94.5 81.5l37 40l102 545q-66 8 -92 8q-58 0 -117 -44t-105.5 -116.5t-76 -175.5t-29.5 -211z" />
<glyph unicode="&#xe3;" horiz-adv-x="1067" d="M47 313q0 113 26.5 223.5t77.5 205.5t120 167.5t160.5 114t191.5 41.5q52 0 188.5 -13.5t202.5 -17.5l-137 -708q-22 -110 -6 -178.5t83 -139.5l-254 -35q-41 30 -61 79t-16 77l2 14q-6 -7 -16.5 -18.5t-43.5 -40.5t-66.5 -51.5t-80.5 -41t-90 -18.5q-117 0 -199 88 t-82 252zM291 1243q2 6 7 16t24.5 36t43.5 46t66.5 36t91.5 16q45 0 92 -18t85 -36t63 -18q98 0 133 72l111 -80q-2 -6 -6 -16t-21 -35t-40 -44t-66 -35t-95 -16q-54 0 -103.5 17.5t-86 35t-58.5 17.5q-41 0 -74.5 -17.5t-47.5 -35.5l-13 -17zM309 344q0 -67 20.5 -117.5 t63.5 -50.5q44 0 102.5 40.5t94.5 81.5l37 40l102 545q-66 8 -92 8q-58 0 -117 -44t-105.5 -116.5t-76 -175.5t-29.5 -211z" />
<glyph unicode="&#xe4;" horiz-adv-x="1067" d="M47 313q0 113 26.5 223.5t77.5 205.5t120 167.5t160.5 114t191.5 41.5q52 0 188.5 -13.5t202.5 -17.5l-137 -708q-22 -110 -6 -178.5t83 -139.5l-254 -35q-41 30 -61 79t-16 77l2 14q-6 -7 -16.5 -18.5t-43.5 -40.5t-66.5 -51.5t-80.5 -41t-90 -18.5q-117 0 -199 88 t-82 252zM309 344q0 -67 20.5 -117.5t63.5 -50.5q44 0 102.5 40.5t94.5 81.5l37 40l102 545q-66 8 -92 8q-58 0 -117 -44t-105.5 -116.5t-76 -175.5t-29.5 -211zM350 1305q0 52 34.5 89.5t80.5 37.5t80.5 -37.5t34.5 -89.5t-34.5 -88.5t-80.5 -36.5t-80.5 36.5t-34.5 88.5z M727 1305q0 52 34 89.5t81 37.5q46 0 80 -37.5t34 -89.5t-34 -88.5t-80 -36.5q-47 0 -81 36.5t-34 88.5z" />
<glyph unicode="&#xe5;" horiz-adv-x="1067" d="M47 313q0 113 26.5 223.5t77.5 205.5t120 167.5t160.5 114t191.5 41.5q52 0 188.5 -13.5t202.5 -17.5l-137 -708q-22 -110 -6 -178.5t83 -139.5l-254 -35q-41 30 -61 79t-16 77l2 14q-6 -7 -16.5 -18.5t-43.5 -40.5t-66.5 -51.5t-80.5 -41t-90 -18.5q-117 0 -199 88 t-82 252zM309 344q0 -67 20.5 -117.5t63.5 -50.5q44 0 102.5 40.5t94.5 81.5l37 40l102 545q-66 8 -92 8q-58 0 -117 -44t-105.5 -116.5t-76 -175.5t-29.5 -211zM471 1311q0 73 54.5 126.5t127.5 53.5q74 0 130.5 -53.5t56.5 -126.5t-56.5 -127t-130.5 -54q-72 0 -127 54 t-55 127zM567 1313q0 -36 25.5 -66t62.5 -30q40 0 64 29.5t24 66.5q0 35 -27 61.5t-61 26.5q-36 0 -62 -26t-26 -62z" />
<glyph unicode="&#xe6;" horiz-adv-x="1529" d="M47 313q0 113 26.5 223.5t77.5 205.5t120 167.5t160.5 114t191.5 41.5q34 0 146.5 -17.5t184.5 -17.5q40 0 121 16.5t125 16.5q151 0 229 -68.5t78 -179.5q0 -80 -34.5 -143.5t-91.5 -105t-137 -69.5t-163 -41t-178 -16q0 -108 56 -180t149 -72q48 0 100.5 19t93 46 t74.5 54.5t52 46.5l18 19l16 -242q-6 -6 -16.5 -17t-49 -38t-82 -48t-113.5 -38t-146 -17q-133 0 -224 58t-137 159q-179 -217 -366 -217q-117 0 -199 88t-82 252zM309 344q0 -67 20.5 -117.5t63.5 -50.5q35 0 77.5 23.5t81 60.5t61 61t38.5 44q-2 16 -2 55q0 130 40 248 t114 206l-74 9q-66 8 -92 8q-58 0 -117 -44t-105.5 -116.5t-76 -175.5t-29.5 -211zM922 600q123 15 171 28q151 47 152 167q0 43 -21.5 65.5t-54.5 22.5q-49 0 -91 -25.5t-71.5 -68.5t-50 -89.5t-34.5 -99.5z" />
<glyph unicode="&#xe7;" horiz-adv-x="944" d="M47 408q0 152 43.5 278t117.5 208t170 126.5t202 44.5q72 0 159 -14.5t138 -28.5l51 -14l-64 -205q-18 8 -47 20t-97 31.5t-112 19.5q-72 0 -131.5 -37.5t-96 -97.5t-56 -130t-19.5 -140q0 -57 12 -106t36.5 -89.5t67.5 -64t101 -23.5q44 0 93.5 18.5t88 45t71 52.5 t49.5 44l18 19l16 -236q-5 -5 -14.5 -13t-42 -30.5t-67 -41t-88 -37.5t-107.5 -27q19 -19 76.5 -60.5t88.5 -79t31 -84.5q0 -62 -26.5 -109.5t-70.5 -74t-94.5 -40t-105.5 -13.5q-124 0 -231 80l74 141q29 -33 78 -48.5t90 -15.5q34 0 56.5 13.5t22.5 42.5q0 26 -34.5 53 t-78.5 57.5t-59 57.5l25 80q-83 11 -148 50t-105 97t-60.5 129t-20.5 152z" />
<glyph unicode="&#xe8;" horiz-adv-x="940" d="M59 420q0 173 67.5 319t195 235t288.5 89q151 0 229.5 -68.5t78.5 -179.5q0 -80 -34.5 -143.5t-91.5 -105t-137 -69.5t-163.5 -41t-178.5 -16q0 -108 56 -180t149 -72q48 0 100.5 19t93 46t74.5 54.5t52 46.5l18 19l16 -242q-6 -6 -16.5 -17t-49 -38t-82 -48t-113.5 -38 t-146 -17q-102 0 -181.5 36t-127.5 98.5t-72.5 142t-24.5 170.5zM238 1483h305l211 -279l-168 -57zM332 600q123 15 171 28q151 47 152 167q0 44 -21 66t-54 22q-49 0 -91 -25.5t-72 -68.5t-50.5 -89.5t-34.5 -99.5z" />
<glyph unicode="&#xe9;" horiz-adv-x="940" d="M59 420q0 173 67.5 319t195 235t288.5 89q151 0 229.5 -68.5t78.5 -179.5q0 -80 -34.5 -143.5t-91.5 -105t-137 -69.5t-163.5 -41t-178.5 -16q0 -108 56 -180t149 -72q48 0 100.5 19t93 46t74.5 54.5t52 46.5l18 19l16 -242q-6 -6 -16.5 -17t-49 -38t-82 -48t-113.5 -38 t-146 -17q-102 0 -181.5 36t-127.5 98.5t-72.5 142t-24.5 170.5zM332 600q123 15 171 28q151 47 152 167q0 44 -21 66t-54 22q-49 0 -91 -25.5t-72 -68.5t-50.5 -89.5t-34.5 -99.5zM395 1204l260 279h306l-410 -336z" />
<glyph unicode="&#xea;" horiz-adv-x="940" d="M59 420q0 173 67.5 319t195 235t288.5 89q151 0 229.5 -68.5t78.5 -179.5q0 -80 -34.5 -143.5t-91.5 -105t-137 -69.5t-163.5 -41t-178.5 -16q0 -108 56 -180t149 -72q48 0 100.5 19t93 46t74.5 54.5t52 46.5l18 19l16 -242q-6 -6 -16.5 -17t-49 -38t-82 -48t-113.5 -38 t-146 -17q-102 0 -181.5 36t-127.5 98.5t-72.5 142t-24.5 170.5zM225 1210l258 273h209l209 -273l-166 -61l-162 190l-194 -190zM332 600q123 15 171 28q151 47 152 167q0 44 -21 66t-54 22q-49 0 -91 -25.5t-72 -68.5t-50.5 -89.5t-34.5 -99.5z" />
<glyph unicode="&#xeb;" horiz-adv-x="940" d="M59 420q0 173 67.5 319t195 235t288.5 89q151 0 229.5 -68.5t78.5 -179.5q0 -80 -34.5 -143.5t-91.5 -105t-137 -69.5t-163.5 -41t-178.5 -16q0 -108 56 -180t149 -72q48 0 100.5 19t93 46t74.5 54.5t52 46.5l18 19l16 -242q-6 -6 -16.5 -17t-49 -38t-82 -48t-113.5 -38 t-146 -17q-102 0 -181.5 36t-127.5 98.5t-72.5 142t-24.5 170.5zM270 1305q0 52 34.5 89.5t80.5 37.5t80.5 -37.5t34.5 -89.5t-34.5 -88.5t-80.5 -36.5t-80.5 36.5t-34.5 88.5zM332 600q123 15 171 28q151 47 152 167q0 44 -21 66t-54 22q-49 0 -91 -25.5t-72 -68.5 t-50.5 -89.5t-34.5 -99.5zM647 1305q0 52 34 89.5t81 37.5q46 0 80.5 -37.5t34.5 -89.5t-34.5 -88.5t-80.5 -36.5q-47 0 -81 36.5t-34 88.5z" />
<glyph unicode="&#xec;" horiz-adv-x="577" d="M45 1483h305l211 -279l-168 -57zM55 0l160 827l12 207l289 31l-174 -889l-10 -176h-277z" />
<glyph unicode="&#xed;" horiz-adv-x="577" d="M55 0l160 827l12 207l289 31l-174 -889l-10 -176h-277zM203 1204l260 279h305l-410 -336z" />
<glyph unicode="&#xee;" horiz-adv-x="577" d="M33 1210l258 273h209l209 -273l-166 -61l-162 190l-195 -190zM55 0l160 827l12 207l289 31l-174 -889l-10 -176h-277z" />
<glyph unicode="&#xef;" horiz-adv-x="577" d="M55 0l160 827l12 207l289 31l-174 -889l-10 -176h-277zM78 1305q0 52 34.5 89.5t80.5 37.5t80 -37.5t34 -89.5t-34 -88.5t-80 -36.5t-80.5 36.5t-34.5 88.5zM455 1305q0 53 33.5 90t80.5 37q46 0 80.5 -37.5t34.5 -89.5t-34.5 -88.5t-80.5 -36.5q-47 0 -80.5 36.5 t-33.5 88.5z" />
<glyph unicode="&#xf0;" horiz-adv-x="1105" d="M47 387q0 134 47.5 260t126 217t182.5 146t213 55q61 0 112.5 -13.5t73.5 -27.5l21 -14q-36 130 -110 225l-256 -102l-31 129l182 73q-78 55 -166 80l129 164q173 -42 289 -141l266 106l-16 -147l-156 -62q140 -199 140 -504q0 -130 -24 -253t-76 -233t-126 -192.5 t-181 -131t-234 -48.5q-95 0 -168.5 28t-117 70.5t-72 100t-38.5 110t-10 105.5zM305 412q0 -113 45 -185.5t127 -72.5q71 0 132 45t101.5 115t69.5 157.5t42 170t14 153.5q-37 38 -94 60t-109 22q-97 0 -174.5 -76.5t-115.5 -181t-38 -207.5z" />
<glyph unicode="&#xf1;" horiz-adv-x="1132" d="M55 0l162 823l-18 176l293 64l-23 -170q6 7 17.5 18.5t48.5 41t75 52.5t94.5 41.5t110.5 18.5q76 0 128 -27.5t75 -74t29.5 -107t-9.5 -127.5l-108 -559l-12 -170h-277l127 670q36 174 -47 174q-48 0 -117.5 -39t-114.5 -78l-45 -39l-100 -514l-14 -174h-275zM342 1243 q2 6 7 16t24.5 36t43.5 46t66.5 36t91.5 16q45 0 92 -18t85 -36t63 -18q98 0 133 72l111 -80q-2 -6 -6 -16t-21 -35t-40 -44t-66 -35t-95 -16q-54 0 -103.5 17.5t-85.5 35t-58 17.5q-41 0 -74.5 -17.5t-47.5 -35.5l-13 -17z" />
<glyph unicode="&#xf2;" horiz-adv-x="1038" d="M47 383q0 302 160 492t418 190q158 0 260 -108.5t102 -303.5q0 -136 -39.5 -258.5t-111.5 -216.5t-181.5 -149.5t-240.5 -55.5q-85 0 -151.5 27.5t-106 69.5t-65.5 98.5t-35 108.5t-9 106zM303 420q0 -120 38 -190t114 -70q46 0 92.5 29t87 84t65.5 147t25 205 q0 111 -41.5 183.5t-110.5 72.5q-75 0 -138.5 -70.5t-97.5 -176t-34 -214.5zM309 1483h305l211 -279l-168 -57z" />
<glyph unicode="&#xf3;" horiz-adv-x="1038" d="M47 383q0 302 160 492t418 190q158 0 260 -108.5t102 -303.5q0 -136 -39.5 -258.5t-111.5 -216.5t-181.5 -149.5t-240.5 -55.5q-85 0 -151.5 27.5t-106 69.5t-65.5 98.5t-35 108.5t-9 106zM303 420q0 -120 38 -190t114 -70q46 0 92.5 29t87 84t65.5 147t25 205 q0 111 -41.5 183.5t-110.5 72.5q-75 0 -138.5 -70.5t-97.5 -176t-34 -214.5zM467 1204l260 279h305l-409 -336z" />
<glyph unicode="&#xf4;" horiz-adv-x="1038" d="M47 383q0 302 160 492t418 190q158 0 260 -108.5t102 -303.5q0 -136 -39.5 -258.5t-111.5 -216.5t-181.5 -149.5t-240.5 -55.5q-85 0 -151.5 27.5t-106 69.5t-65.5 98.5t-35 108.5t-9 106zM297 1210l258 273h209l209 -273l-166 -61l-162 190l-194 -190zM303 420 q0 -120 38 -190t114 -70q46 0 92.5 29t87 84t65.5 147t25 205q0 111 -41.5 183.5t-110.5 72.5q-75 0 -138.5 -70.5t-97.5 -176t-34 -214.5z" />
<glyph unicode="&#xf5;" horiz-adv-x="1038" d="M47 383q0 302 160 492t418 190q158 0 260 -108.5t102 -303.5q0 -136 -39.5 -258.5t-111.5 -216.5t-181.5 -149.5t-240.5 -55.5q-85 0 -151.5 27.5t-106 69.5t-65.5 98.5t-35 108.5t-9 106zM283 1243q2 6 7 16t24.5 36t43.5 46t66.5 36t91.5 16q45 0 92 -18t85 -36t63 -18 q98 0 133 72l110 -80q-2 -6 -5.5 -16t-21 -35t-40 -44t-65.5 -35t-95 -16q-54 0 -103.5 17.5t-86 35t-58.5 17.5q-41 0 -74.5 -17.5t-47.5 -35.5l-13 -17zM303 420q0 -120 38 -190t114 -70q46 0 92.5 29t87 84t65.5 147t25 205q0 111 -41.5 183.5t-110.5 72.5 q-75 0 -138.5 -70.5t-97.5 -176t-34 -214.5z" />
<glyph unicode="&#xf6;" horiz-adv-x="1038" d="M47 383q0 302 160 492t418 190q158 0 260 -108.5t102 -303.5q0 -136 -39.5 -258.5t-111.5 -216.5t-181.5 -149.5t-240.5 -55.5q-85 0 -151.5 27.5t-106 69.5t-65.5 98.5t-35 108.5t-9 106zM303 420q0 -120 38 -190t114 -70q46 0 92.5 29t87 84t65.5 147t25 205 q0 111 -41.5 183.5t-110.5 72.5q-75 0 -138.5 -70.5t-97.5 -176t-34 -214.5zM342 1305q0 52 34.5 89.5t80.5 37.5t80 -37.5t34 -89.5t-34 -88.5t-80 -36.5t-80.5 36.5t-34.5 88.5zM719 1305q0 52 34 89.5t81 37.5q46 0 80 -37.5t34 -89.5t-34 -88.5t-80 -36.5 q-47 0 -81 36.5t-34 88.5z" />
<glyph unicode="&#xf7;" horiz-adv-x="989" d="M137 406v202h721l-57 -202h-664zM342 170q0 60 42 101.5t101 41.5q56 0 97 -42t41 -101q0 -57 -41 -97t-97 -40q-59 0 -101 40t-42 97zM342 842q0 60 42 101.5t101 41.5q56 0 97 -42t41 -101q0 -57 -41 -97t-97 -40q-59 0 -101 40t-42 97z" />
<glyph unicode="&#xf8;" horiz-adv-x="1038" d="M-12 -207l170 275q-59 59 -85 144t-26 171q0 302 160 492t418 190q64 0 131 -23l112 181l146 -37l-137 -221q110 -113 110 -312q0 -136 -39.5 -258.5t-111.5 -216.5t-181.5 -149.5t-240.5 -55.5q-77 0 -144 23l-155 -250zM297 420q0 -47 14 -119l35 72l297 483 q-31 25 -70 25q-75 0 -140 -70.5t-100.5 -176.5t-35.5 -214zM385 178q30 -18 70 -18q46 0 93.5 29.5t89 84t67.5 146.5t26 205q0 41 -14 104l-39 -82z" />
<glyph unicode="&#xf9;" horiz-adv-x="1140" d="M98 305l107 559l10 170h279l-127 -669q-36 -175 57 -175q26 0 63 18t72 44t66 52.5t50 44.5l19 18l97 493l14 174h274l-137 -708q-22 -110 -5.5 -178t83.5 -140l-250 -35q-42 31 -62 82t-16 90l2 17q-6 -8 -17.5 -20.5t-49.5 -45t-78.5 -57.5t-100.5 -45.5t-120 -20.5 q-145 0 -201.5 92.5t-28.5 239.5zM332 1483h305l211 -279l-168 -57z" />
<glyph unicode="&#xfa;" horiz-adv-x="1140" d="M98 305l107 559l10 170h279l-127 -669q-36 -175 57 -175q26 0 63 18t72 44t66 52.5t50 44.5l19 18l97 493l14 174h274l-137 -708q-22 -110 -5.5 -178t83.5 -140l-250 -35q-42 31 -62 82t-16 90l2 17q-6 -8 -17.5 -20.5t-49.5 -45t-78.5 -57.5t-100.5 -45.5t-120 -20.5 q-145 0 -201.5 92.5t-28.5 239.5zM489 1204l261 279h305l-410 -336z" />
<glyph unicode="&#xfb;" horiz-adv-x="1140" d="M98 305l107 559l10 170h279l-127 -669q-36 -175 57 -175q26 0 63 18t72 44t66 52.5t50 44.5l19 18l97 493l14 174h274l-137 -708q-22 -110 -5.5 -178t83.5 -140l-250 -35q-42 31 -62 82t-16 90l2 17q-6 -8 -17.5 -20.5t-49.5 -45t-78.5 -57.5t-100.5 -45.5t-120 -20.5 q-145 0 -201.5 92.5t-28.5 239.5zM319 1210l259 273h208l209 -273l-166 -61l-161 190l-195 -190z" />
<glyph unicode="&#xfc;" horiz-adv-x="1140" d="M98 305l107 559l10 170h279l-127 -669q-36 -175 57 -175q26 0 63 18t72 44t66 52.5t50 44.5l19 18l97 493l14 174h274l-137 -708q-22 -110 -5.5 -178t83.5 -140l-250 -35q-42 31 -62 82t-16 90l2 17q-6 -8 -17.5 -20.5t-49.5 -45t-78.5 -57.5t-100.5 -45.5t-120 -20.5 q-145 0 -201.5 92.5t-28.5 239.5zM365 1305q0 52 34 89.5t80 37.5t80.5 -37.5t34.5 -89.5t-34.5 -88.5t-80.5 -36.5t-80 36.5t-34 88.5zM741 1305q0 52 34 89.5t81 37.5q46 0 80.5 -37.5t34.5 -89.5t-34.5 -88.5t-80.5 -36.5q-47 0 -81 36.5t-34 88.5z" />
<glyph unicode="&#xfd;" horiz-adv-x="995" d="M-227 -248q79 -31 149 -31q143 0 258 166l92 131l-24 58l-115 758l-63 192l284 39l92 -625l7 -174l86 174l159 262q47 75 47 154q0 34 -13.5 76.5t-27.5 67.5l-14 26l268 39q48 -92 48 -178q0 -118 -101 -275l-514 -817q-93 -147 -219.5 -220t-251.5 -73q-19 0 -53 6 t-58 12l-24 7zM365 1202l260 279h305l-410 -336z" />
<glyph unicode="&#xfe;" horiz-adv-x="1089" d="M-39 -492l354 1817l-16 182l301 60l-115 -592l-26 -80q6 7 16.5 18.5t43.5 40.5t67.5 51.5t84 41t95.5 18.5q113 0 189.5 -91t76.5 -259q0 -115 -21.5 -222t-67.5 -202t-112 -165.5t-161 -111.5t-209 -41q-21 0 -59 6.5t-66 12.5l-27 6l-59 -315l-10 -175h-279zM344 182 q68 -20 117 -20q93 0 165 75.5t108 193.5t36 255q0 84 -24 125t-62 41q-36 0 -96.5 -42t-103.5 -84l-42 -42z" />
<glyph unicode="&#xff;" horiz-adv-x="995" d="M-227 -248q79 -31 149 -31q143 0 258 166l92 131l-24 58l-115 758l-63 192l284 39l92 -625l7 -174l86 174l159 262q47 75 47 154q0 34 -13.5 76.5t-27.5 67.5l-14 26l268 39q48 -92 48 -178q0 -118 -101 -275l-514 -817q-93 -147 -219.5 -220t-251.5 -73q-19 0 -53 6 t-58 12l-24 7zM291 1303q0 52 34.5 89.5t80.5 37.5t80 -37.5t34 -89.5t-34 -88.5t-80 -36.5t-80.5 36.5t-34.5 88.5zM668 1303q0 53 33.5 90t80.5 37q46 0 80.5 -37.5t34.5 -89.5t-34.5 -88.5t-80.5 -36.5q-47 0 -80.5 36.5t-33.5 88.5z" />
<glyph unicode="&#x152;" horiz-adv-x="1697" d="M72 522q0 177 53 331.5t149.5 268.5t239 180t313.5 66h881l-35 -203h-442l-74 -362h414l-76 -203h-377l-74 -397h496l-80 -203h-876q-163 0 -280.5 70t-174.5 186.5t-57 265.5zM344 547q0 -164 72 -261.5t192 -97.5h164l184 930l2 64h-147q-58 0 -120 -23t-124.5 -74 t-111.5 -123t-80 -180t-31 -235z" />
<glyph unicode="&#x153;" horiz-adv-x="1576" d="M47 383q0 302 160 492t418 190q60 0 111 -16t81 -38.5t51 -45t29 -38.5l8 -16q4 6 12.5 16.5t39.5 36.5t67.5 46t96.5 36.5t126 16.5q151 0 229 -68.5t78 -179.5q0 -80 -34.5 -143.5t-91.5 -105t-137 -69.5t-163 -41t-178 -16q0 -108 56 -180t149 -72q48 0 100.5 19 t93 46t74.5 54.5t52 46.5l18 19l16 -242q-6 -6 -16.5 -17t-49 -38t-82 -48t-113.5 -38t-146 -17q-59 0 -112.5 17.5t-88 42t-60.5 49t-38 42.5l-12 17q-6 -7 -17 -18t-48.5 -40t-78.5 -51.5t-104.5 -40.5t-128.5 -18q-85 0 -151.5 27.5t-106 69.5t-65.5 98.5t-35 108.5 t-9 106zM303 420q0 -120 38 -190t114 -70q46 0 92.5 29t87 84t65.5 147t25 205q0 111 -41.5 183.5t-110.5 72.5q-75 0 -138.5 -70.5t-97.5 -176t-34 -214.5zM969 600q123 15 171 28q151 47 152 167q0 44 -21 66t-54 22q-49 0 -91 -25.5t-72 -68.5t-50.5 -89.5t-34.5 -99.5z " />
<glyph unicode="&#x178;" horiz-adv-x="1095" d="M106 1368h310l153 -455l17 -86l57 101l309 440h277l-563 -772l-82 -422l-9 -174h-292l116 594l-196 596zM283 1614q0 52 34 89.5t80 37.5t80.5 -37.5t34.5 -89.5t-34.5 -88.5t-80.5 -36.5t-80 36.5t-34 88.5zM659 1614q0 52 34 89.5t81 37.5q46 0 80.5 -37.5t34.5 -89.5 t-34.5 -88.5t-80.5 -36.5q-47 0 -81 36.5t-34 88.5z" />
<glyph unicode="&#x2c6;" horiz-adv-x="823" d="M61 1210l258 273h209l209 -273l-166 -61l-161 190l-195 -190z" />
<glyph unicode="&#x2dc;" horiz-adv-x="778" d="M41 1243q2 6 7 16t24.5 36t43.5 46t66.5 36t91.5 16q45 0 92 -18t85 -36t63 -18q98 0 133 72l111 -80q-2 -6 -6 -16t-21 -35t-40 -44t-66 -35t-95 -16q-54 0 -103.5 17.5t-85.5 35t-58 17.5q-41 0 -75 -17.5t-48 -35.5l-13 -17z" />
<glyph unicode="&#x2000;" horiz-adv-x="900" />
<glyph unicode="&#x2001;" horiz-adv-x="1800" />
<glyph unicode="&#x2002;" horiz-adv-x="900" />
<glyph unicode="&#x2003;" horiz-adv-x="1800" />
<glyph unicode="&#x2004;" horiz-adv-x="600" />
<glyph unicode="&#x2005;" horiz-adv-x="450" />
<glyph unicode="&#x2006;" horiz-adv-x="300" />
<glyph unicode="&#x2007;" horiz-adv-x="300" />
<glyph unicode="&#x2008;" horiz-adv-x="225" />
<glyph unicode="&#x2009;" horiz-adv-x="360" />
<glyph unicode="&#x200a;" horiz-adv-x="100" />
<glyph unicode="&#x2010;" horiz-adv-x="638" d="M33 399v213h596l-58 -213h-538z" />
<glyph unicode="&#x2011;" horiz-adv-x="638" d="M33 399v213h596l-58 -213h-538z" />
<glyph unicode="&#x2012;" horiz-adv-x="638" d="M33 399v213h596l-58 -213h-538z" />
<glyph unicode="&#x2013;" horiz-adv-x="946" d="M74 399v213h825l-57 -213h-768z" />
<glyph unicode="&#x2014;" horiz-adv-x="1411" d="M74 399v213h1286l-57 -213h-1229z" />
<glyph unicode="&#x2018;" horiz-adv-x="512" d="M164 1001q0 83 79 192.5t238 207.5l58 -88q-68 -48 -110 -111.5t-42 -109.5q0 -40 13.5 -60t45.5 -35v-14q0 -49 -39.5 -94t-97.5 -45q-61 0 -103 41t-42 116z" />
<glyph unicode="&#x2019;" horiz-adv-x="512" d="M158 932q68 48 109.5 111t41.5 110q0 40 -13.5 59.5t-45.5 34.5v15q0 49 39.5 94t97.5 45q61 0 103 -41t42 -117q0 -83 -79 -192t-238 -207z" />
<glyph unicode="&#x201a;" horiz-adv-x="512" d="M-16 -195q68 47 109.5 111t41.5 111q0 40 -13.5 59.5t-45.5 34.5v14q0 49 39.5 94t97.5 45q61 0 103 -41t42 -116q0 -83 -79 -192.5t-238 -207.5z" />
<glyph unicode="&#x201c;" horiz-adv-x="874" d="M164 1001q0 83 79 192.5t238 207.5l58 -88q-68 -48 -110 -111.5t-42 -109.5q0 -40 13.5 -60t45.5 -35v-14q0 -49 -39.5 -94t-97.5 -45q-61 0 -103 41t-42 116zM526 1001q0 83 79.5 192.5t238.5 207.5l57 -88q-68 -48 -109.5 -111t-41.5 -110q0 -40 13.5 -60t45.5 -35v-14 q0 -49 -39.5 -94t-97.5 -45q-61 0 -103.5 41t-42.5 116z" />
<glyph unicode="&#x201d;" horiz-adv-x="870" d="M158 932q68 48 109.5 111t41.5 110q0 40 -13.5 59.5t-45.5 34.5v15q0 49 39.5 94t97.5 45q61 0 103 -41t42 -117q0 -83 -79 -192t-238 -207zM516 932q68 48 110 111.5t42 109.5q0 40 -14 59.5t-46 34.5v15q0 49 39.5 94t97.5 45q61 0 103.5 -41.5t42.5 -116.5 q0 -83 -79.5 -192t-238.5 -207z" />
<glyph unicode="&#x201e;" horiz-adv-x="870" d="M-16 -195q68 47 109.5 111t41.5 111q0 40 -13.5 59.5t-45.5 34.5v14q0 49 39.5 94t97.5 45q61 0 103 -41t42 -116q0 -83 -79 -192.5t-238 -207.5zM342 -195q68 48 110 112t42 110q0 40 -14 59.5t-46 34.5v14q0 49 39.5 94t97.5 45q61 0 103.5 -41t42.5 -116 q0 -83 -79.5 -192.5t-238.5 -207.5z" />
<glyph unicode="&#x2022;" horiz-adv-x="868" d="M117 506q0 129 91.5 220t223.5 91q129 0 221 -91t92 -220q0 -132 -92 -224t-221 -92q-132 0 -223.5 92t-91.5 224z" />
<glyph unicode="&#x2026;" horiz-adv-x="1501" d="M145 104q0 53 38 90t93 37q52 0 89.5 -37.5t37.5 -89.5q0 -55 -37 -93t-90 -38q-56 0 -93.5 37.5t-37.5 93.5zM627 104q0 52 38.5 89.5t92.5 37.5q52 0 89.5 -37.5t37.5 -89.5q0 -55 -37 -93t-90 -38q-54 0 -92.5 38t-38.5 93zM1100 104q0 53 37.5 90t91.5 37t91.5 -37 t37.5 -90q0 -55 -37.5 -93t-91.5 -38t-91.5 38t-37.5 93z" />
<glyph unicode="&#x202f;" horiz-adv-x="360" />
<glyph unicode="&#x2039;" horiz-adv-x="800" d="M51 508l629 500l80 -189l-395 -317l264 -309l-148 -185z" />
<glyph unicode="&#x203a;" horiz-adv-x="800" d="M41 197l395 317l-264 309l147 185l431 -500l-629 -500z" />
<glyph unicode="&#x205f;" horiz-adv-x="450" />
<glyph unicode="&#x20ac;" horiz-adv-x="1230" d="M-39 408l37 182h111q10 86 26 149h-110l34 183h142q100 212 287 339.5t442 127.5q93 0 185 -26.5t137 -52.5l46 -26l-110 -203q-4 4 -12 11t-37 25.5t-62.5 32t-88 25t-114.5 11.5q-139 0 -246 -71t-179 -193h653l-101 -183h-628q-22 -78 -31 -149h594l-102 -182h-492 q39 -230 330 -230q81 0 189 37.5t216 114.5l-47 -238q-208 -119 -436 -119q-213 0 -343 113t-147 322h-143z" />
<glyph unicode="&#x2122;" horiz-adv-x="1662" d="M55 1284v160h592v-160h-190v-493l14 -117h-233v610h-183zM698 1444h160l311 -438l279 438h158v-653l14 -117h-242v352l-211 -328l-245 338v-245l14 -117h-221v637z" />
<glyph unicode="&#xe000;" horiz-adv-x="1064" d="M0 0v1065h1065v-1065h-1065z" />
</font>
</defs>
</svg>
